<svg xmlns="http://www.w3.org/2000/svg" xmlns:xlink="http://www.w3.org/1999/xlink" width="1920" zoomAndPan="magnify" viewBox="0 0 1440 1012.49997" height="1350" preserveAspectRatio="xMidYMid meet" version="1.0"><path fill="#f56f10" d="M 1336.457031 288.972656 C 1333.199219 288.972656 1330.042969 287.230469 1328.371094 284.167969 C 1325.933594 279.703125 1327.585938 274.109375 1332.050781 271.683594 C 1348.019531 262.96875 1364.964844 256.226562 1382.402344 251.636719 C 1387.324219 250.339844 1392.359375 253.277344 1393.644531 258.1875 C 1394.945312 263.105469 1392.003906 268.140625 1387.097656 269.441406 C 1371.082031 273.652344 1355.535156 279.839844 1340.851562 287.84375 C 1339.453125 288.609375 1337.949219 288.972656 1336.457031 288.972656 Z M 1257.410156 356.070312 C 1255.316406 356.070312 1253.21875 355.363281 1251.5 353.917969 C 1247.605469 350.660156 1247.09375 344.851562 1250.351562 340.957031 C 1262.433594 326.523438 1275.019531 313.621094 1287.777344 302.59375 C 1291.625 299.269531 1297.4375 299.691406 1300.761719 303.539062 C 1304.085938 307.390625 1303.65625 313.199219 1299.816406 316.523438 C 1287.8125 326.902344 1275.910156 339.097656 1264.472656 352.765625 C 1262.652344 354.941406 1260.03125 356.070312 1257.410156 356.070312 Z M 1199.074219 442.460938 C 1197.523438 442.460938 1195.953125 442.074219 1194.519531 441.242188 C 1190.097656 438.726562 1188.574219 433.097656 1191.089844 428.691406 C 1200.726562 411.8125 1209.746094 397.085938 1218.675781 383.667969 C 1221.488281 379.429688 1227.207031 378.28125 1231.445312 381.09375 C 1235.667969 383.90625 1236.820312 389.625 1234.007812 393.859375 C 1225.316406 406.9375 1216.5 421.3125 1207.070312 437.8125 C 1205.371094 440.785156 1202.273438 442.460938 1199.074219 442.460938 Z M 1149.527344 534.285156 C 1148.035156 534.285156 1146.53125 533.921875 1145.132812 533.15625 C 1140.667969 530.71875 1139.015625 525.128906 1141.453125 520.675781 C 1145.703125 512.871094 1150.144531 504.59375 1155.007812 495.367188 L 1157.546875 490.558594 C 1160.3125 485.308594 1163.105469 480.023438 1165.917969 474.71875 C 1168.296875 470.21875 1173.867188 468.519531 1178.367188 470.890625 C 1182.855469 473.28125 1184.5625 478.851562 1182.183594 483.339844 C 1179.371094 488.636719 1176.589844 493.910156 1173.835938 499.148438 L 1171.292969 503.964844 C 1166.375 513.261719 1161.910156 521.609375 1157.613281 529.480469 C 1155.953125 532.542969 1152.785156 534.285156 1149.527344 534.285156 Z M 417.007812 564.171875 C 414.84375 564.171875 412.667969 563.410156 410.914062 561.859375 C 407.109375 558.488281 406.757812 552.667969 410.128906 548.863281 C 423.191406 534.09375 442.679688 524.628906 462.246094 523.535156 C 467.28125 523.261719 471.667969 527.144531 471.953125 532.222656 C 472.234375 537.304688 468.339844 541.644531 463.273438 541.929688 C 448.511719 542.738281 433.796875 549.890625 423.910156 561.0625 C 422.085938 563.125 419.558594 564.171875 417.007812 564.171875 Z M 532.488281 606.882812 C 528.011719 606.882812 524.09375 603.613281 523.398438 599.058594 C 521.074219 583.660156 513.695312 568.785156 503.148438 558.261719 C 499.550781 554.671875 499.550781 548.839844 503.136719 545.242188 C 506.722656 541.644531 512.554688 541.644531 516.15625 545.230469 C 529.628906 558.683594 538.660156 576.816406 541.609375 596.3125 C 542.363281 601.335938 538.902344 606.03125 533.878906 606.78125 C 533.410156 606.851562 532.957031 606.882812 532.488281 606.882812 Z M 1095.539062 623.488281 C 1093.742188 623.488281 1091.90625 622.953125 1090.3125 621.851562 C 1086.132812 618.957031 1085.085938 613.226562 1087.976562 609.046875 C 1097.203125 595.699219 1106.316406 581.507812 1115.824219 565.652344 C 1118.433594 561.300781 1124.09375 559.890625 1128.445312 562.496094 C 1132.808594 565.117188 1134.21875 570.765625 1131.613281 575.128906 C 1121.898438 591.3125 1112.578125 605.835938 1103.113281 619.515625 C 1101.339844 622.101562 1098.457031 623.488281 1095.539062 623.488281 Z M 428.351562 659.207031 C 425.367188 659.207031 422.453125 657.761719 420.675781 655.097656 C 417.132812 649.765625 413.691406 644.253906 410.492188 638.707031 C 405.890625 630.792969 399.421875 618.742188 396.277344 605.699219 C 395.082031 600.757812 398.125 595.777344 403.066406 594.582031 C 408 593.398438 412.976562 596.441406 414.171875 601.382812 C 416.164062 609.652344 419.933594 618.308594 426.414062 629.46875 C 429.433594 634.6875 432.667969 639.878906 436.003906 644.914062 C 438.820312 649.140625 437.667969 654.859375 433.441406 657.671875 C 431.871094 658.71875 430.105469 659.207031 428.351562 659.207031 Z M 1028.546875 703.140625 C 1026.109375 703.140625 1023.683594 702.171875 1021.882812 700.28125 C 1018.375 696.601562 1018.511719 690.769531 1022.203125 687.261719 C 1034.070312 675.953125 1045.789062 663.386719 1057.019531 649.9375 C 1060.277344 646.03125 1066.085938 645.507812 1069.980469 648.765625 C 1073.890625 652.023438 1074.414062 657.820312 1071.15625 661.726562 C 1059.480469 675.722656 1047.28125 688.800781 1034.890625 700.597656 C 1033.113281 702.296875 1030.824219 703.140625 1028.546875 703.140625 Z M 498.957031 703.421875 C 497.25 703.421875 495.515625 702.957031 493.96875 701.953125 C 489.695312 699.199219 488.476562 693.503906 491.234375 689.230469 C 500.882812 674.289062 509.457031 658.480469 515.378906 644.71875 C 517.386719 640.050781 522.808594 637.898438 527.476562 639.902344 C 532.144531 641.917969 534.300781 647.328125 532.28125 652 C 525.972656 666.667969 516.882812 683.433594 506.703125 699.21875 C 504.9375 701.941406 501.976562 703.421875 498.957031 703.421875 Z M 499.515625 734.789062 C 497.566406 734.789062 495.597656 734.175781 493.933594 732.898438 C 479.605469 721.964844 466.199219 709.914062 454.082031 697.089844 C 450.597656 693.390625 450.765625 687.558594 454.457031 684.074219 C 458.160156 680.585938 463.980469 680.746094 467.476562 684.449219 C 478.898438 696.554688 491.566406 707.933594 505.105469 718.265625 C 509.152344 721.351562 509.925781 727.125 506.839844 731.167969 C 505.027344 733.550781 502.28125 734.789062 499.515625 734.789062 Z M 61.542969 736.226562 C 60.714844 736.226562 59.859375 736.113281 59.015625 735.871094 C 41.839844 730.988281 24.9375 725.578125 8.777344 719.800781 C 3.992188 718.09375 1.496094 712.820312 3.207031 708.035156 C 4.925781 703.253906 10.1875 700.757812 14.972656 702.464844 C 30.746094 708.105469 47.261719 713.390625 64.0625 718.171875 C 68.949219 719.5625 71.785156 724.652344 70.394531 729.539062 C 69.242188 733.59375 65.554688 736.226562 61.542969 736.226562 Z M 163.300781 759.015625 C 162.789062 759.015625 162.265625 758.984375 161.75 758.890625 C 144.175781 755.90625 126.808594 752.511719 110.097656 748.789062 C 105.132812 747.683594 102.011719 742.773438 103.117188 737.808594 C 104.222656 732.84375 109.140625 729.722656 114.097656 730.828125 C 130.496094 734.484375 147.558594 737.808594 164.828125 740.738281 C 169.839844 741.589844 173.210938 746.339844 172.367188 751.351562 C 171.605469 755.839844 167.707031 759.015625 163.300781 759.015625 Z M 944.433594 764.234375 C 941.152344 764.234375 937.976562 762.46875 936.3125 759.371094 C 933.921875 754.894531 935.605469 749.3125 940.082031 746.910156 C 955.015625 738.914062 969.5 729.824219 983.136719 719.894531 C 987.246094 716.910156 993.011719 717.808594 995.996094 721.921875 C 998.988281 726.03125 998.078125 731.785156 993.976562 734.78125 C 979.648438 745.199219 964.445312 754.746094 948.773438 763.140625 C 947.394531 763.878906 945.902344 764.234375 944.433594 764.234375 Z M 422.679688 770.359375 C 418.578125 770.359375 414.832031 767.59375 413.773438 763.4375 C 412.519531 758.503906 415.492188 753.492188 420.414062 752.238281 C 426.550781 750.679688 432.453125 748.742188 437.953125 746.488281 C 442.257812 744.734375 449.640625 740.292969 460.449219 729.097656 C 463.96875 725.429688 469.800781 725.324219 473.453125 728.855469 C 477.109375 732.386719 477.226562 738.207031 473.695312 741.875 C 463.238281 752.71875 453.558594 759.996094 444.921875 763.527344 C 438.636719 766.101562 431.929688 768.300781 424.96875 770.078125 C 424.207031 770.269531 423.429688 770.359375 422.679688 770.359375 Z M 266.8125 771.851562 C 266.558594 771.851562 266.296875 771.839844 266.046875 771.820312 C 248.3125 770.359375 230.726562 768.5625 213.78125 766.476562 C 208.734375 765.851562 205.144531 761.261719 205.761719 756.214844 C 206.386719 751.167969 210.988281 747.582031 216.023438 748.195312 C 232.734375 750.257812 250.066406 752.035156 267.550781 753.46875 C 272.621094 753.890625 276.390625 758.332031 275.96875 763.402344 C 275.582031 768.207031 271.546875 771.851562 266.8125 771.851562 Z M 363.816406 776.5 C 357.824219 776.5 351.34375 776.386719 343.453125 776.148438 C 335.105469 775.886719 326.6875 775.566406 318.441406 775.179688 C 313.359375 774.941406 309.429688 770.632812 309.671875 765.554688 C 309.910156 760.476562 314.273438 756.5 319.292969 756.785156 C 327.449219 757.171875 335.777344 757.492188 344.023438 757.742188 C 351.722656 757.980469 358.019531 758.09375 363.816406 758.09375 C 366.164062 758.09375 368.5 758.070312 370.84375 758.027344 C 370.902344 758.027344 370.945312 758.027344 371.003906 758.027344 C 376.015625 758.027344 380.117188 762.046875 380.207031 767.070312 C 380.296875 772.160156 376.242188 776.351562 371.164062 776.441406 C 368.714844 776.476562 366.265625 776.5 363.816406 776.5 Z M 590.542969 784.984375 C 589.449219 784.984375 588.34375 784.792969 587.273438 784.382812 C 570.449219 777.96875 554.140625 770.453125 538.796875 762.023438 C 534.332031 759.574219 532.703125 753.984375 535.152344 749.527344 C 537.589844 745.074219 543.195312 743.4375 547.648438 745.882812 C 562.261719 753.902344 577.796875 761.066406 593.820312 767.171875 C 598.570312 768.984375 600.953125 774.300781 599.152344 779.050781 C 597.75 782.730469 594.253906 784.984375 590.542969 784.984375 Z M 847.105469 800.917969 C 842.925781 800.917969 839.15625 798.0625 838.15625 793.835938 C 836.980469 788.882812 840.046875 783.925781 844.988281 782.753906 C 861.71875 778.800781 878.109375 773.8125 893.738281 767.921875 C 898.488281 766.136719 903.804688 768.539062 905.59375 773.289062 C 907.394531 778.050781 904.980469 783.355469 900.230469 785.15625 C 883.875 791.308594 866.710938 796.535156 849.226562 800.667969 C 848.519531 800.839844 847.800781 800.917969 847.105469 800.917969 Z M 691.660156 809.574219 C 691.296875 809.574219 690.929688 809.554688 690.566406 809.507812 C 672.867188 807.410156 655.234375 804.257812 638.171875 800.132812 C 633.230469 798.925781 630.191406 793.960938 631.386719 789.015625 C 632.59375 784.074219 637.546875 781.042969 642.5 782.230469 C 658.859375 786.191406 675.761719 789.222656 692.730469 791.226562 C 697.777344 791.832031 701.386719 796.410156 700.792969 801.457031 C 700.238281 806.136719 696.261719 809.574219 691.660156 809.574219 Z M 744.851562 812.707031 L 743.652344 812.707031 C 738.574219 812.683594 734.472656 808.550781 734.496094 803.472656 C 734.507812 798.402344 738.632812 794.300781 743.699219 794.300781 C 743.710938 794.300781 743.722656 794.300781 743.734375 794.300781 L 744.851562 794.300781 C 761.492188 794.300781 778.269531 793.355469 794.714844 791.488281 C 799.761719 790.917969 804.316406 794.554688 804.898438 799.597656 C 805.464844 804.65625 801.832031 809.210938 796.789062 809.78125 C 779.65625 811.730469 762.183594 812.707031 744.851562 812.707031 " fill-opacity="1" fill-rule="nonzero"/><path fill="#f56f10" d="M 1434.523438 244.984375 L 1379.464844 320.339844 C 1374.875 326.605469 1364.976562 323.90625 1364.226562 316.171875 L 1359.988281 272.824219 C 1359.816406 271.023438 1359.066406 269.3125 1357.847656 267.96875 L 1328.644531 235.65625 C 1323.4375 229.894531 1328.097656 220.75 1335.820312 221.578125 L 1428.613281 231.589844 C 1435.082031 232.296875 1438.359375 239.734375 1434.523438 244.984375 " fill-opacity="1" fill-rule="nonzero"/></svg>