<svg xmlns="http://www.w3.org/2000/svg" xmlns:xlink="http://www.w3.org/1999/xlink" width="1920" zoomAndPan="magnify" viewBox="0 0 1440 1012.49997" height="1350" preserveAspectRatio="xMidYMid meet" version="1.0"><defs><clipPath id="22dad37d16"><path d="M 1326 210.046875 L 1437 210.046875 L 1437 313 L 1326 313 Z M 1326 210.046875 " clip-rule="nonzero"/></clipPath></defs><path fill="#efb036" d="M 1336.457031 278.140625 C 1333.199219 278.140625 1330.042969 276.398438 1328.371094 273.335938 C 1325.933594 268.871094 1327.585938 263.277344 1332.050781 260.851562 C 1348.019531 252.136719 1364.964844 245.394531 1382.402344 240.804688 C 1387.324219 239.507812 1392.359375 242.445312 1393.644531 247.355469 C 1394.945312 252.273438 1392.003906 257.308594 1387.097656 258.609375 C 1371.082031 262.820312 1355.535156 269.007812 1340.851562 277.011719 C 1339.453125 277.777344 1337.949219 278.140625 1336.457031 278.140625 Z M 1257.410156 345.238281 C 1255.316406 345.238281 1253.21875 344.53125 1251.5 343.085938 C 1247.605469 339.828125 1247.09375 334.019531 1250.351562 330.125 C 1262.433594 315.691406 1275.019531 302.789062 1287.777344 291.761719 C 1291.625 288.4375 1297.4375 288.859375 1300.761719 292.707031 C 1304.085938 296.558594 1303.65625 302.367188 1299.816406 305.691406 C 1287.8125 316.070312 1275.910156 328.265625 1264.472656 341.933594 C 1262.652344 344.109375 1260.03125 345.238281 1257.410156 345.238281 Z M 1199.074219 431.628906 C 1197.523438 431.628906 1195.953125 431.242188 1194.519531 430.410156 C 1190.097656 427.894531 1188.574219 422.265625 1191.089844 417.859375 C 1200.726562 400.980469 1209.746094 386.253906 1218.675781 372.835938 C 1221.488281 368.597656 1227.207031 367.449219 1231.445312 370.261719 C 1235.667969 373.074219 1236.820312 378.792969 1234.007812 383.03125 C 1225.316406 396.105469 1216.5 410.480469 1207.070312 426.984375 C 1205.371094 429.957031 1202.273438 431.628906 1199.074219 431.628906 Z M 1149.527344 523.453125 C 1148.035156 523.453125 1146.53125 523.089844 1145.132812 522.324219 C 1140.667969 519.890625 1139.015625 514.296875 1141.453125 509.84375 C 1145.703125 502.039062 1150.144531 493.761719 1155.007812 484.535156 L 1157.546875 479.726562 C 1160.3125 474.476562 1163.105469 469.191406 1165.917969 463.886719 C 1168.296875 459.386719 1173.867188 457.6875 1178.367188 460.058594 C 1182.855469 462.449219 1184.5625 468.019531 1182.183594 472.507812 C 1179.371094 477.804688 1176.589844 483.078125 1173.835938 488.316406 L 1171.292969 493.132812 C 1166.375 502.429688 1161.910156 510.777344 1157.613281 518.648438 C 1155.953125 521.710938 1152.785156 523.453125 1149.527344 523.453125 Z M 417.007812 553.339844 C 414.84375 553.339844 412.667969 552.578125 410.914062 551.027344 C 407.109375 547.65625 406.757812 541.835938 410.128906 538.03125 C 423.191406 523.261719 442.679688 513.796875 462.246094 512.703125 C 467.28125 512.429688 471.667969 516.3125 471.953125 521.390625 C 472.234375 526.472656 468.339844 530.8125 463.273438 531.097656 C 448.511719 531.90625 433.796875 539.058594 423.910156 550.230469 C 422.085938 552.292969 419.558594 553.339844 417.007812 553.339844 Z M 532.488281 596.050781 C 528.011719 596.050781 524.09375 592.78125 523.398438 588.226562 C 521.074219 572.828125 513.695312 557.953125 503.148438 547.429688 C 499.550781 543.839844 499.550781 538.011719 503.136719 534.410156 C 506.722656 530.8125 512.554688 530.8125 516.15625 534.398438 C 529.628906 547.851562 538.660156 565.984375 541.609375 585.480469 C 542.363281 590.503906 538.902344 595.199219 533.878906 595.949219 C 533.410156 596.019531 532.957031 596.050781 532.488281 596.050781 Z M 1095.539062 612.660156 C 1093.742188 612.660156 1091.90625 612.121094 1090.3125 611.019531 C 1086.132812 608.125 1085.085938 602.394531 1087.976562 598.214844 C 1097.203125 584.867188 1106.316406 570.675781 1115.824219 554.820312 C 1118.433594 550.46875 1124.09375 549.058594 1128.445312 551.667969 C 1132.808594 554.285156 1134.21875 559.933594 1131.613281 564.296875 C 1121.898438 580.480469 1112.578125 595.003906 1103.113281 608.683594 C 1101.339844 611.269531 1098.457031 612.660156 1095.539062 612.660156 Z M 428.351562 648.375 C 425.367188 648.375 422.453125 646.929688 420.675781 644.265625 C 417.132812 638.933594 413.691406 633.421875 410.492188 627.875 C 405.890625 619.960938 399.421875 607.910156 396.277344 594.867188 C 395.082031 589.925781 398.125 584.945312 403.066406 583.75 C 408 582.566406 412.976562 585.609375 414.171875 590.550781 C 416.164062 598.820312 419.933594 607.476562 426.414062 618.636719 C 429.433594 623.855469 432.667969 629.046875 436.003906 634.082031 C 438.820312 638.308594 437.667969 644.027344 433.441406 646.839844 C 431.871094 647.886719 430.105469 648.375 428.351562 648.375 Z M 1028.546875 692.308594 C 1026.109375 692.308594 1023.683594 691.339844 1021.882812 689.449219 C 1018.375 685.769531 1018.511719 679.9375 1022.203125 676.429688 C 1034.070312 665.121094 1045.789062 652.554688 1057.019531 639.105469 C 1060.277344 635.199219 1066.085938 634.675781 1069.980469 637.933594 C 1073.890625 641.191406 1074.414062 646.988281 1071.15625 650.894531 C 1059.480469 664.890625 1047.28125 677.96875 1034.890625 689.765625 C 1033.113281 691.464844 1030.824219 692.308594 1028.546875 692.308594 Z M 498.957031 692.589844 C 497.25 692.589844 495.515625 692.125 493.96875 691.121094 C 489.695312 688.367188 488.476562 682.671875 491.234375 678.398438 C 500.882812 663.457031 509.457031 647.648438 515.378906 633.890625 C 517.386719 629.21875 522.808594 627.066406 527.476562 629.070312 C 532.144531 631.085938 534.300781 636.496094 532.28125 641.167969 C 525.972656 655.835938 516.882812 672.601562 506.703125 688.390625 C 504.9375 691.109375 501.976562 692.589844 498.957031 692.589844 Z M 499.515625 723.960938 C 497.566406 723.960938 495.597656 723.34375 493.933594 722.066406 C 479.605469 711.132812 466.199219 699.082031 454.082031 686.257812 C 450.597656 682.558594 450.765625 676.726562 454.457031 673.242188 C 458.160156 669.753906 463.980469 669.914062 467.476562 673.617188 C 478.898438 685.722656 491.566406 697.101562 505.105469 707.433594 C 509.152344 710.519531 509.925781 716.292969 506.839844 720.335938 C 505.027344 722.71875 502.28125 723.960938 499.515625 723.960938 Z M 61.542969 725.394531 C 60.714844 725.394531 59.859375 725.28125 59.015625 725.042969 C 41.839844 720.15625 24.9375 714.746094 8.777344 708.96875 C 3.992188 707.261719 1.496094 701.988281 3.207031 697.203125 C 4.925781 692.421875 10.1875 689.925781 14.972656 691.636719 C 30.746094 697.273438 47.261719 702.558594 64.0625 707.339844 C 68.949219 708.730469 71.785156 713.820312 70.394531 718.707031 C 69.242188 722.761719 65.554688 725.394531 61.542969 725.394531 Z M 163.300781 748.183594 C 162.789062 748.183594 162.265625 748.152344 161.75 748.058594 C 144.175781 745.074219 126.808594 741.679688 110.097656 737.957031 C 105.132812 736.851562 102.011719 731.941406 103.117188 726.976562 C 104.222656 722.011719 109.140625 718.890625 114.097656 719.996094 C 130.496094 723.652344 147.558594 726.976562 164.828125 729.90625 C 169.839844 730.757812 173.210938 735.507812 172.367188 740.519531 C 171.605469 745.007812 167.707031 748.183594 163.300781 748.183594 Z M 944.433594 753.402344 C 941.152344 753.402344 937.976562 751.636719 936.3125 748.539062 C 933.921875 744.0625 935.605469 738.480469 940.082031 736.078125 C 955.015625 728.082031 969.5 718.992188 983.136719 709.0625 C 987.246094 706.078125 993.011719 706.976562 995.996094 711.089844 C 998.988281 715.199219 998.078125 720.953125 993.976562 723.949219 C 979.648438 734.371094 964.445312 743.914062 948.773438 752.308594 C 947.394531 753.046875 945.902344 753.402344 944.433594 753.402344 Z M 422.679688 759.527344 C 418.578125 759.527344 414.832031 756.761719 413.773438 752.605469 C 412.519531 747.671875 415.492188 742.660156 420.414062 741.40625 C 426.550781 739.847656 432.453125 737.910156 437.953125 735.65625 C 442.257812 733.902344 449.640625 729.460938 460.449219 718.265625 C 463.96875 714.597656 469.800781 714.492188 473.453125 718.023438 C 477.109375 721.554688 477.226562 727.375 473.695312 731.042969 C 463.238281 741.886719 453.558594 749.164062 444.921875 752.695312 C 438.636719 755.269531 431.929688 757.46875 424.96875 759.246094 C 424.207031 759.4375 423.429688 759.527344 422.679688 759.527344 Z M 266.8125 761.019531 C 266.558594 761.019531 266.296875 761.011719 266.046875 760.988281 C 248.3125 759.527344 230.726562 757.730469 213.78125 755.644531 C 208.734375 755.019531 205.144531 750.429688 205.761719 745.382812 C 206.386719 740.335938 210.988281 736.75 216.023438 737.363281 C 232.734375 739.425781 250.066406 741.203125 267.550781 742.636719 C 272.621094 743.058594 276.390625 747.5 275.96875 752.570312 C 275.582031 757.375 271.546875 761.019531 266.8125 761.019531 Z M 363.816406 765.667969 C 357.824219 765.667969 351.34375 765.554688 343.453125 765.316406 C 335.105469 765.054688 326.6875 764.734375 318.441406 764.347656 C 313.359375 764.109375 309.429688 759.800781 309.671875 754.722656 C 309.910156 749.644531 314.273438 745.667969 319.292969 745.953125 C 327.449219 746.339844 335.777344 746.660156 344.023438 746.910156 C 351.722656 747.148438 358.019531 747.261719 363.816406 747.261719 C 366.164062 747.261719 368.5 747.238281 370.84375 747.195312 C 370.902344 747.195312 370.945312 747.195312 371.003906 747.195312 C 376.015625 747.195312 380.117188 751.214844 380.207031 756.238281 C 380.296875 761.328125 376.242188 765.519531 371.164062 765.613281 C 368.714844 765.644531 366.265625 765.667969 363.816406 765.667969 Z M 590.542969 774.152344 C 589.449219 774.152344 588.34375 773.960938 587.273438 773.550781 C 570.449219 767.136719 554.140625 759.621094 538.796875 751.191406 C 534.332031 748.742188 532.703125 743.152344 535.152344 738.699219 C 537.589844 734.242188 543.195312 732.605469 547.648438 735.050781 C 562.261719 743.070312 577.796875 750.234375 593.820312 756.339844 C 598.570312 758.152344 600.953125 763.46875 599.152344 768.21875 C 597.75 771.898438 594.253906 774.152344 590.542969 774.152344 Z M 847.105469 790.089844 C 842.925781 790.089844 839.15625 787.230469 838.15625 783.003906 C 836.980469 778.050781 840.046875 773.09375 844.988281 771.921875 C 861.71875 767.96875 878.109375 762.980469 893.738281 757.09375 C 898.488281 755.304688 903.804688 757.707031 905.59375 762.457031 C 907.394531 767.21875 904.980469 772.523438 900.230469 774.324219 C 883.875 780.476562 866.710938 785.703125 849.226562 789.835938 C 848.519531 790.007812 847.800781 790.089844 847.105469 790.089844 Z M 691.660156 798.746094 C 691.296875 798.746094 690.929688 798.722656 690.566406 798.675781 C 672.867188 796.582031 655.234375 793.425781 638.171875 789.300781 C 633.230469 788.09375 630.191406 783.128906 631.386719 778.1875 C 632.59375 773.242188 637.546875 770.210938 642.5 771.398438 C 658.859375 775.359375 675.761719 778.390625 692.730469 780.394531 C 697.777344 781 701.386719 785.578125 700.792969 790.625 C 700.238281 795.304688 696.261719 798.746094 691.660156 798.746094 Z M 744.851562 801.875 L 743.652344 801.875 C 738.574219 801.855469 734.472656 797.71875 734.496094 792.640625 C 734.507812 787.570312 738.632812 783.46875 743.699219 783.46875 C 743.710938 783.46875 743.722656 783.46875 743.734375 783.46875 L 744.851562 783.46875 C 761.492188 783.46875 778.269531 782.523438 794.714844 780.65625 C 799.761719 780.085938 804.316406 783.722656 804.898438 788.765625 C 805.464844 793.824219 801.832031 798.378906 796.789062 798.949219 C 779.65625 800.898438 762.183594 801.875 744.851562 801.875 " fill-opacity="1" fill-rule="nonzero"/><g clip-path="url(#22dad37d16)"><path fill="#efb036" d="M 1434.523438 234.152344 L 1379.464844 309.507812 C 1374.875 315.773438 1364.976562 313.074219 1364.226562 305.339844 L 1359.988281 261.992188 C 1359.816406 260.191406 1359.066406 258.480469 1357.847656 257.136719 L 1328.644531 224.824219 C 1323.4375 219.0625 1328.097656 209.917969 1335.820312 210.746094 L 1428.613281 220.757812 C 1435.082031 221.464844 1438.359375 228.902344 1434.523438 234.152344 " fill-opacity="1" fill-rule="nonzero"/></g></svg>