<svg xmlns="http://www.w3.org/2000/svg" xmlns:xlink="http://www.w3.org/1999/xlink" width="1920" zoomAndPan="magnify" viewBox="0 0 1440 1012.49997" height="1350" preserveAspectRatio="xMidYMid meet" version="1.0"><defs><clipPath id="a61d74a88b"><path d="M 900 12 L 927 12 L 927 43 L 900 43 Z M 900 12 " clip-rule="nonzero"/></clipPath><clipPath id="59d69941f8"><path d="M 1245.574219 660.054688 L 719.738281 276.804688 L 915.777344 7.828125 L 1441.613281 391.078125 Z M 1245.574219 660.054688 " clip-rule="nonzero"/></clipPath><clipPath id="69b458f567"><path d="M 1245.574219 660.054688 L 719.738281 276.804688 L 915.777344 7.828125 L 1441.613281 391.078125 Z M 1245.574219 660.054688 " clip-rule="nonzero"/></clipPath><clipPath id="97c83116e6"><path d="M 848 54 L 1405 54 L 1405 532 L 848 532 Z M 848 54 " clip-rule="nonzero"/></clipPath><clipPath id="edb22365e8"><path d="M 1245.574219 660.054688 L 719.738281 276.804688 L 915.777344 7.828125 L 1441.613281 391.078125 Z M 1245.574219 660.054688 " clip-rule="nonzero"/></clipPath><clipPath id="7aa5522bf2"><path d="M 1245.574219 660.054688 L 719.738281 276.804688 L 915.777344 7.828125 L 1441.613281 391.078125 Z M 1245.574219 660.054688 " clip-rule="nonzero"/></clipPath><clipPath id="bde135a31a"><path d="M 1410 384 L 1438 384 L 1438 415 L 1410 415 Z M 1410 384 " clip-rule="nonzero"/></clipPath><clipPath id="316be8c395"><path d="M 1245.574219 660.054688 L 719.738281 276.804688 L 915.777344 7.828125 L 1441.613281 391.078125 Z M 1245.574219 660.054688 " clip-rule="nonzero"/></clipPath><clipPath id="f2ef3b6d68"><path d="M 1245.574219 660.054688 L 719.738281 276.804688 L 915.777344 7.828125 L 1441.613281 391.078125 Z M 1245.574219 660.054688 " clip-rule="nonzero"/></clipPath></defs><g clip-path="url(#a61d74a88b)"><g clip-path="url(#59d69941f8)"><g clip-path="url(#69b458f567)"><path fill="#efb036" d="M 903.589844 41.023438 C 900.027344 38.425781 899.089844 33.480469 901.515625 29.757812 C 904.613281 25.019531 907.851562 20.320312 911.222656 15.699219 C 913.929688 11.980469 919.136719 11.167969 922.847656 13.875 C 926.5625 16.582031 927.371094 21.785156 924.667969 25.5 C 921.460938 29.898438 918.398438 34.34375 915.453125 38.851562 C 912.941406 42.691406 907.785156 43.789062 903.941406 41.261719 C 903.820312 41.191406 903.699219 41.105469 903.589844 41.023438 Z M 903.589844 41.023438 " fill-opacity="1" fill-rule="nonzero"/></g></g></g><g clip-path="url(#97c83116e6)"><g clip-path="url(#edb22365e8)"><g clip-path="url(#7aa5522bf2)"><path fill="#efb036" d="M 995.726562 478.394531 C 992.179688 475.808594 991.234375 470.847656 993.679688 467.121094 C 996.195312 463.269531 1001.351562 462.191406 1005.191406 464.714844 C 1014.1875 470.601562 1023.554688 476.042969 1033.03125 480.90625 C 1037.078125 482.972656 1038.742188 488.023438 1036.632812 492.105469 C 1034.53125 496.199219 1029.507812 497.8125 1025.429688 495.707031 C 1015.445312 490.578125 1005.570312 484.835938 996.085938 478.628906 C 995.960938 478.566406 995.84375 478.480469 995.726562 478.394531 Z M 969.027344 458.898438 C 968.90625 458.808594 968.800781 458.722656 968.675781 458.625 C 959.902344 451.5 951.417969 443.839844 943.480469 435.886719 C 940.230469 432.628906 940.226562 427.367188 943.488281 424.121094 C 946.734375 420.875 952.0625 420.914062 955.246094 424.125 C 962.792969 431.675781 970.828125 438.945312 979.160156 445.707031 C 982.730469 448.609375 983.273438 453.851562 980.371094 457.417969 C 977.582031 460.867188 972.570312 461.480469 969.027344 458.898438 Z M 1054.488281 508.601562 C 1051.511719 506.433594 1050.246094 502.460938 1051.640625 498.871094 C 1053.300781 494.582031 1058.121094 492.453125 1062.402344 494.121094 C 1072.375 497.980469 1082.671875 501.351562 1093.007812 504.15625 C 1097.4375 505.351562 1100.082031 509.917969 1098.867188 514.363281 C 1097.664062 518.804688 1093.09375 521.425781 1088.660156 520.222656 C 1077.761719 517.273438 1066.902344 513.707031 1056.394531 509.636719 C 1055.703125 509.363281 1055.054688 509.015625 1054.488281 508.601562 Z M 922.363281 412.132812 C 921.78125 411.710938 921.269531 411.210938 920.785156 410.628906 C 913.703125 401.851562 907.003906 392.589844 900.875 383.121094 C 898.375 379.257812 899.480469 374.109375 903.339844 371.613281 C 907.199219 369.117188 912.363281 370.238281 914.851562 374.085938 C 920.667969 383.074219 927.011719 391.855469 933.726562 400.167969 C 936.621094 403.75 936.054688 408.984375 932.480469 411.871094 C 929.496094 414.300781 925.328125 414.296875 922.363281 412.132812 Z M 1118.289062 525.855469 C 1115.839844 524.074219 1114.453125 521.019531 1114.972656 517.808594 C 1115.695312 513.277344 1119.964844 510.183594 1124.507812 510.90625 C 1135.082031 512.597656 1145.863281 513.753906 1156.535156 514.339844 C 1161.125 514.582031 1164.636719 518.503906 1164.398438 523.09375 C 1164.148438 527.6875 1160.230469 531.203125 1155.632812 530.960938 C 1144.375 530.351562 1133.015625 529.136719 1121.867188 527.351562 C 1120.535156 527.136719 1119.316406 526.605469 1118.289062 525.855469 Z M 886.507812 356.660156 C 885.476562 355.90625 884.601562 354.914062 883.984375 353.695312 C 878.894531 343.640625 874.28125 333.199219 870.265625 322.652344 C 868.628906 318.363281 870.785156 313.554688 875.082031 311.917969 C 879.375 310.28125 884.195312 312.429688 885.824219 316.734375 C 889.632812 326.746094 894.015625 336.648438 898.835938 346.171875 C 900.910156 350.28125 899.277344 355.292969 895.171875 357.359375 C 892.273438 358.824219 888.949219 358.4375 886.507812 356.660156 Z M 1184.277344 529.433594 C 1182.3125 528.003906 1180.992188 525.738281 1180.859375 523.125 C 1180.636719 518.535156 1184.171875 514.625 1188.761719 514.402344 C 1199.425781 513.863281 1210.21875 512.761719 1220.804688 511.113281 C 1225.34375 510.398438 1229.601562 513.519531 1230.308594 518.058594 C 1231.011719 522.605469 1227.898438 526.851562 1223.359375 527.558594 C 1212.195312 529.292969 1200.832031 530.460938 1189.589844 531.023438 C 1187.605469 531.121094 1185.761719 530.519531 1184.277344 529.433594 Z M 862.992188 294.933594 C 861.5 293.84375 860.363281 292.257812 859.851562 290.339844 C 856.957031 279.421875 854.601562 268.238281 852.855469 257.128906 C 852.148438 252.589844 855.253906 248.328125 859.789062 247.617188 C 864.332031 246.90625 868.59375 250.011719 869.300781 254.550781 C 870.953125 265.101562 873.1875 275.703125 875.9375 286.070312 C 877.113281 290.519531 874.464844 295.074219 870.023438 296.253906 C 867.5 296.925781 864.949219 296.359375 862.992188 294.933594 Z M 1249.554688 519.277344 C 1248.0625 518.191406 1246.917969 516.601562 1246.40625 514.683594 C 1245.230469 510.238281 1247.886719 505.683594 1252.332031 504.507812 C 1262.667969 501.777344 1272.988281 498.464844 1282.996094 494.675781 C 1287.289062 493.046875 1292.089844 495.199219 1293.726562 499.507812 C 1295.363281 503.804688 1293.199219 508.609375 1288.894531 510.238281 C 1278.351562 514.246094 1267.480469 517.726562 1256.582031 520.609375 C 1254.058594 521.265625 1251.507812 520.703125 1249.554688 519.277344 Z M 852.769531 229.667969 C 850.8125 228.242188 849.492188 225.976562 849.359375 223.363281 C 848.785156 212.09375 848.785156 200.667969 849.378906 189.410156 C 849.617188 184.820312 853.542969 181.296875 858.132812 181.539062 C 862.726562 181.773438 866.238281 185.695312 866 190.289062 C 865.445312 200.96875 865.433594 211.804688 865.988281 222.507812 C 866.226562 227.089844 862.691406 231.007812 858.113281 231.242188 C 856.113281 231.355469 854.261719 230.757812 852.769531 229.667969 Z M 1311.296875 495.847656 C 1310.265625 495.097656 1309.394531 494.101562 1308.785156 492.882812 C 1306.714844 488.777344 1308.367188 483.769531 1312.460938 481.703125 C 1322.007812 476.878906 1331.40625 471.503906 1340.398438 465.703125 C 1344.265625 463.203125 1349.417969 464.328125 1351.898438 468.195312 C 1354.394531 472.058594 1353.285156 477.203125 1349.417969 479.695312 C 1339.921875 485.8125 1330.019531 491.480469 1319.957031 496.554688 C 1317.070312 498.019531 1313.742188 497.628906 1311.296875 495.847656 Z M 856.265625 163.6875 C 853.820312 161.902344 852.4375 158.851562 852.953125 155.648438 C 854.730469 144.484375 857.113281 133.296875 860.042969 122.421875 C 861.234375 117.980469 865.796875 115.355469 870.238281 116.5625 C 874.671875 117.761719 877.308594 122.316406 876.109375 126.75 C 873.324219 137.074219 871.070312 147.675781 869.390625 158.257812 C 868.660156 162.792969 864.386719 165.890625 859.855469 165.175781 C 858.503906 164.960938 857.296875 164.4375 856.265625 163.6875 Z M 1366.832031 460.070312 C 1366.25 459.648438 1365.71875 459.152344 1365.253906 458.554688 C 1362.363281 454.984375 1362.929688 449.738281 1366.511719 446.859375 C 1374.839844 440.160156 1382.902344 432.925781 1390.484375 425.378906 C 1393.742188 422.136719 1399.019531 422.167969 1402.261719 425.394531 C 1405.496094 428.660156 1405.496094 433.925781 1402.242188 437.167969 C 1394.238281 445.132812 1385.734375 452.75 1376.953125 459.828125 C 1373.941406 462.246094 1369.800781 462.234375 1366.832031 460.070312 Z M 873.441406 99.847656 C 870.476562 97.683594 869.199219 93.71875 870.59375 90.128906 C 874.652344 79.613281 879.316406 69.195312 884.460938 59.148438 C 886.554688 55.0625 891.566406 53.4375 895.65625 55.542969 C 899.804688 57.640625 901.367188 62.644531 899.257812 66.738281 C 894.386719 76.261719 889.960938 86.144531 886.109375 96.128906 C 884.453125 100.410156 879.632812 102.554688 875.347656 100.894531 C 874.644531 100.621094 874.019531 100.265625 873.441406 99.847656 Z M 873.441406 99.847656 " fill-opacity="1" fill-rule="nonzero"/></g></g></g><g clip-path="url(#bde135a31a)"><g clip-path="url(#316be8c395)"><g clip-path="url(#f2ef3b6d68)"><path fill="#efb036" d="M 1414.007812 413.039062 C 1413.886719 412.949219 1413.777344 412.867188 1413.664062 412.765625 C 1410.085938 409.882812 1409.542969 404.632812 1412.433594 401.070312 C 1415.824219 396.882812 1419.121094 392.613281 1422.328125 388.214844 C 1425.039062 384.496094 1430.246094 383.683594 1433.953125 386.386719 C 1437.671875 389.09375 1438.488281 394.304688 1435.78125 398.019531 C 1432.414062 402.640625 1428.929688 407.160156 1425.359375 411.554688 C 1422.5625 415.015625 1417.558594 415.625 1414.007812 413.039062 Z M 1414.007812 413.039062 " fill-opacity="1" fill-rule="nonzero"/></g></g></g></svg>