<svg xmlns="http://www.w3.org/2000/svg" xmlns:xlink="http://www.w3.org/1999/xlink" width="1920" zoomAndPan="magnify" viewBox="0 0 1440 1012.49997" height="1350" preserveAspectRatio="xMidYMid meet" version="1.0"><defs><clipPath id="21045d5b68"><path d="M 0.355469 0 L 1439.644531 0 L 1439.644531 778 L 0.355469 778 Z M 0.355469 0 " clip-rule="nonzero"/></clipPath><clipPath id="070047d368"><path d="M 188.324219 1064.761719 L -80.566406 -913.3125 L 2027.496094 -1199.871094 L 2296.382812 778.203125 Z M 188.324219 1064.761719 " clip-rule="nonzero"/></clipPath><clipPath id="004a557095"><path d="M 188.324219 1064.761719 L -80.566406 -913.3125 L 2027.496094 -1199.871094 L 2296.382812 778.203125 Z M 188.324219 1064.761719 " clip-rule="nonzero"/></clipPath></defs><g clip-path="url(#21045d5b68)"><g clip-path="url(#070047d368)"><g clip-path="url(#004a557095)"><path fill="#f56f10" d="M 2294.984375 766.5 C 2295.066406 767.050781 2295.101562 767.605469 2295.089844 768.164062 C 2295.074219 768.71875 2295.015625 769.273438 2294.90625 769.816406 C 2294.796875 770.363281 2294.644531 770.898438 2294.445312 771.417969 C 2294.242188 771.9375 2294 772.4375 2293.714844 772.914062 C 2293.425781 773.390625 2293.101562 773.84375 2292.738281 774.265625 C 2292.375 774.683594 2291.976562 775.074219 2291.546875 775.425781 C 2291.117188 775.78125 2290.660156 776.09375 2290.171875 776.367188 C 2289.6875 776.640625 2289.183594 776.875 2288.660156 777.0625 C 2288.136719 777.246094 2287.597656 777.390625 2287.050781 777.484375 C 2286.5 777.578125 2285.945312 777.625 2285.390625 777.625 C 2284.832031 777.625 2284.28125 777.578125 2283.730469 777.480469 C 2283.183594 777.382812 2282.644531 777.242188 2282.121094 777.054688 C 2281.597656 776.867188 2281.09375 776.632812 2280.609375 776.359375 C 2280.125 776.082031 2279.667969 775.769531 2279.238281 775.414062 C 2278.808594 775.058594 2278.410156 774.671875 2278.050781 774.25 C 2277.6875 773.824219 2277.363281 773.375 2277.078125 772.898438 C 2267.1875 756.636719 2256.574219 740.425781 2245.585938 724.707031 C 2245.300781 724.191406 2245.066406 723.652344 2244.878906 723.089844 C 2244.691406 722.527344 2244.558594 721.953125 2244.476562 721.367188 C 2244.394531 720.78125 2244.367188 720.191406 2244.390625 719.601562 C 2244.417969 719.011719 2244.496094 718.425781 2244.628906 717.851562 C 2244.761719 717.273438 2244.945312 716.714844 2245.183594 716.171875 C 2245.417969 715.628906 2245.703125 715.109375 2246.03125 714.621094 C 2246.363281 714.128906 2246.734375 713.671875 2247.148438 713.25 C 2247.5625 712.824219 2248.011719 712.445312 2248.496094 712.101562 C 2248.976562 711.761719 2249.488281 711.46875 2250.027344 711.222656 C 2250.566406 710.976562 2251.121094 710.777344 2251.695312 710.632812 C 2252.269531 710.488281 2252.851562 710.394531 2253.441406 710.355469 C 2254.03125 710.320312 2254.621094 710.335938 2255.207031 710.402344 C 2255.796875 710.472656 2256.371094 710.59375 2256.9375 710.769531 C 2257.503906 710.945312 2258.046875 711.167969 2258.570312 711.445312 C 2259.097656 711.71875 2259.589844 712.039062 2260.054688 712.40625 C 2260.523438 712.769531 2260.949219 713.175781 2261.339844 713.617188 C 2272.574219 729.695312 2283.378906 746.222656 2293.535156 763.03125 C 2294.242188 764.09375 2294.722656 765.25 2294.984375 766.5 Z M 2228.242188 671.222656 C 2228.308594 671.746094 2228.332031 672.269531 2228.3125 672.792969 C 2228.292969 673.316406 2228.230469 673.835938 2228.128906 674.351562 C 2228.023438 674.867188 2227.878906 675.371094 2227.691406 675.859375 C 2227.507812 676.351562 2227.28125 676.824219 2227.019531 677.28125 C 2226.757812 677.734375 2226.457031 678.164062 2226.125 678.570312 C 2225.792969 678.976562 2225.429688 679.355469 2225.035156 679.703125 C 2224.640625 680.050781 2224.222656 680.363281 2223.777344 680.640625 C 2223.332031 680.921875 2222.867188 681.160156 2222.382812 681.363281 C 2221.898438 681.570312 2221.402344 681.730469 2220.890625 681.855469 C 2220.378906 681.976562 2219.863281 682.058594 2219.335938 682.09375 C 2218.8125 682.132812 2218.289062 682.128906 2217.765625 682.082031 C 2217.242188 682.035156 2216.726562 681.949219 2216.21875 681.816406 C 2215.710938 681.6875 2215.214844 681.515625 2214.734375 681.304688 C 2214.253906 681.09375 2213.792969 680.84375 2213.351562 680.558594 C 2212.910156 680.273438 2212.496094 679.953125 2212.109375 679.601562 C 2211.71875 679.246094 2211.363281 678.863281 2211.035156 678.453125 C 2199.226562 663.53125 2186.746094 648.699219 2174.023438 634.585938 C 2173.597656 634.101562 2173.222656 633.585938 2172.902344 633.03125 C 2172.578125 632.472656 2172.3125 631.894531 2172.101562 631.285156 C 2171.894531 630.675781 2171.746094 630.054688 2171.660156 629.417969 C 2171.574219 628.78125 2171.554688 628.144531 2171.59375 627.503906 C 2171.632812 626.859375 2171.734375 626.230469 2171.898438 625.609375 C 2172.0625 624.988281 2172.285156 624.390625 2172.570312 623.8125 C 2172.851562 623.234375 2173.1875 622.691406 2173.578125 622.179688 C 2173.964844 621.667969 2174.402344 621.199219 2174.882812 620.777344 C 2175.363281 620.351562 2175.882812 619.976562 2176.4375 619.652344 C 2176.996094 619.332031 2177.574219 619.066406 2178.183594 618.855469 C 2178.792969 618.648438 2179.414062 618.5 2180.050781 618.414062 C 2180.6875 618.328125 2181.324219 618.308594 2181.964844 618.347656 C 2182.609375 618.386719 2183.238281 618.488281 2183.859375 618.652344 C 2184.480469 618.816406 2185.078125 619.039062 2185.65625 619.324219 C 2186.234375 619.605469 2186.777344 619.941406 2187.289062 620.332031 C 2187.800781 620.71875 2188.265625 621.15625 2188.691406 621.636719 C 2201.730469 636.246094 2214.394531 651.347656 2226.492188 666.621094 C 2227.546875 667.972656 2228.195312 669.5 2228.4375 671.195312 Z M 2150.976562 584.464844 C 2151.117188 585.476562 2151.101562 586.480469 2150.925781 587.484375 C 2150.75 588.488281 2150.425781 589.441406 2149.949219 590.34375 C 2149.472656 591.246094 2148.871094 592.050781 2148.140625 592.761719 C 2147.410156 593.472656 2146.589844 594.054688 2145.675781 594.507812 C 2144.761719 594.957031 2143.800781 595.257812 2142.792969 595.40625 C 2141.785156 595.554688 2140.777344 595.546875 2139.773438 595.378906 C 2138.769531 595.207031 2137.8125 594.890625 2136.910156 594.417969 C 2136.007812 593.949219 2135.195312 593.351562 2134.480469 592.625 C 2121.011719 579.152344 2106.929688 565.859375 2092.625 553.082031 C 2092.058594 552.695312 2091.539062 552.253906 2091.066406 551.757812 C 2090.59375 551.257812 2090.179688 550.71875 2089.820312 550.132812 C 2089.460938 549.546875 2089.167969 548.929688 2088.941406 548.28125 C 2088.714844 547.632812 2088.558594 546.96875 2088.472656 546.289062 C 2088.386719 545.609375 2088.375 544.925781 2088.433594 544.242188 C 2088.492188 543.558594 2088.625 542.886719 2088.824219 542.230469 C 2089.027344 541.574219 2089.296875 540.949219 2089.628906 540.347656 C 2089.964844 539.75 2090.359375 539.191406 2090.8125 538.675781 C 2091.265625 538.164062 2091.769531 537.699219 2092.320312 537.292969 C 2092.871094 536.882812 2093.460938 536.539062 2094.085938 536.253906 C 2094.710938 535.96875 2095.359375 535.753906 2096.03125 535.609375 C 2096.699219 535.464844 2097.378906 535.390625 2098.066406 535.386719 C 2098.75 535.386719 2099.429688 535.457031 2100.101562 535.601562 C 2100.773438 535.742188 2101.421875 535.953125 2102.050781 536.234375 C 2102.675781 536.515625 2103.265625 536.859375 2103.820312 537.265625 C 2104.371094 537.667969 2104.878906 538.128906 2105.332031 538.640625 C 2119.914062 551.671875 2134.277344 565.222656 2148.023438 578.949219 C 2148.839844 579.664062 2149.519531 580.492188 2150.054688 581.433594 C 2150.59375 582.371094 2150.964844 583.375 2151.167969 584.441406 Z M 2064.269531 507.0625 C 2064.398438 508.023438 2064.386719 508.980469 2064.230469 509.9375 C 2064.074219 510.894531 2063.78125 511.808594 2063.351562 512.675781 C 2062.921875 513.542969 2062.375 514.332031 2061.710938 515.035156 C 2061.042969 515.742188 2060.289062 516.332031 2059.445312 516.808594 C 2058.601562 517.289062 2057.707031 517.632812 2056.761719 517.839844 C 2055.8125 518.050781 2054.859375 518.117188 2053.890625 518.039062 C 2052.925781 517.960938 2051.992188 517.742188 2051.089844 517.386719 C 2050.191406 517.027344 2049.359375 516.546875 2048.605469 515.9375 C 2033.691406 504.078125 2018.214844 492.394531 2002.621094 481.261719 C 2002.152344 480.875 2001.722656 480.449219 2001.332031 479.980469 C 2000.945312 479.515625 2000.601562 479.015625 2000.308594 478.484375 C 2000.011719 477.953125 1999.769531 477.398438 1999.578125 476.820312 C 1999.386719 476.246094 1999.25 475.65625 1999.171875 475.054688 C 1999.09375 474.449219 1999.070312 473.847656 1999.101562 473.238281 C 1999.136719 472.632812 1999.226562 472.035156 1999.375 471.445312 C 1999.519531 470.855469 1999.71875 470.285156 1999.972656 469.730469 C 2000.226562 469.179688 2000.53125 468.65625 2000.882812 468.160156 C 2001.234375 467.664062 2001.628906 467.207031 2002.070312 466.789062 C 2002.507812 466.367188 2002.980469 465.992188 2003.488281 465.660156 C 2004 465.328125 2004.535156 465.046875 2005.097656 464.816406 C 2005.660156 464.585938 2006.238281 464.40625 2006.832031 464.285156 C 2007.429688 464.164062 2008.03125 464.097656 2008.636719 464.089844 C 2009.246094 464.082031 2009.847656 464.128906 2010.445312 464.234375 C 2011.046875 464.335938 2011.628906 464.496094 2012.199219 464.710938 C 2012.765625 464.925781 2013.308594 465.191406 2013.828125 465.507812 C 2029.738281 476.792969 2045.535156 488.679688 2060.726562 500.792969 C 2061.730469 501.554688 2062.554688 502.472656 2063.199219 503.550781 C 2063.847656 504.632812 2064.265625 505.792969 2064.460938 507.035156 Z M 1969.824219 439.65625 C 1969.988281 440.785156 1969.949219 441.90625 1969.714844 443.023438 C 1969.480469 444.140625 1969.0625 445.183594 1968.460938 446.148438 C 1968.117188 446.6875 1967.726562 447.1875 1967.289062 447.648438 C 1966.847656 448.109375 1966.371094 448.523438 1965.847656 448.890625 C 1965.328125 449.253906 1964.777344 449.566406 1964.195312 449.824219 C 1963.609375 450.082031 1963.007812 450.28125 1962.386719 450.421875 C 1961.765625 450.558594 1961.136719 450.636719 1960.5 450.652344 C 1959.863281 450.667969 1959.230469 450.617188 1958.605469 450.507812 C 1957.976562 450.398438 1957.367188 450.230469 1956.773438 450 C 1956.179688 449.769531 1955.613281 449.484375 1955.078125 449.140625 C 1939.015625 438.90625 1922.285156 429.148438 1905.546875 419.691406 C 1904.992188 419.378906 1904.472656 419.015625 1903.988281 418.601562 C 1903.503906 418.1875 1903.0625 417.730469 1902.667969 417.230469 C 1902.273438 416.730469 1901.929688 416.195312 1901.640625 415.628906 C 1901.351562 415.0625 1901.121094 414.46875 1900.949219 413.855469 C 1900.773438 413.242188 1900.664062 412.621094 1900.613281 411.984375 C 1900.5625 411.347656 1900.574219 410.714844 1900.652344 410.082031 C 1900.726562 409.449219 1900.859375 408.828125 1901.058594 408.222656 C 1901.253906 407.617188 1901.507812 407.035156 1901.820312 406.480469 C 1902.132812 405.925781 1902.496094 405.402344 1902.90625 404.917969 C 1903.320312 404.433594 1903.777344 403.996094 1904.28125 403.601562 C 1904.78125 403.207031 1905.3125 402.863281 1905.882812 402.574219 C 1906.449219 402.285156 1907.039062 402.054688 1907.652344 401.882812 C 1908.265625 401.707031 1908.890625 401.597656 1909.527344 401.546875 C 1910.160156 401.496094 1910.796875 401.507812 1911.429688 401.582031 C 1912.0625 401.660156 1912.679688 401.792969 1913.285156 401.992188 C 1913.894531 402.1875 1914.472656 402.441406 1915.03125 402.753906 C 1932.019531 412.277344 1949.019531 422.582031 1965.417969 432.773438 C 1966.625 433.539062 1967.613281 434.523438 1968.382812 435.726562 C 1969.152344 436.929688 1969.632812 438.238281 1969.824219 439.65625 Z M 1868.421875 382.925781 C 1868.683594 384.871094 1868.378906 386.71875 1867.515625 388.480469 C 1867.238281 389.050781 1866.902344 389.59375 1866.519531 390.101562 C 1866.132812 390.609375 1865.699219 391.074219 1865.222656 391.496094 C 1864.746094 391.917969 1864.230469 392.289062 1863.679688 392.613281 C 1863.128906 392.933594 1862.550781 393.195312 1861.945312 393.402344 C 1861.34375 393.609375 1860.726562 393.757812 1860.09375 393.839844 C 1859.460938 393.925781 1858.828125 393.949219 1858.191406 393.910156 C 1857.554688 393.867188 1856.925781 393.765625 1856.3125 393.601562 C 1855.695312 393.4375 1855.101562 393.214844 1854.527344 392.933594 C 1837.335938 384.464844 1819.710938 376.394531 1802.117188 368.910156 C 1801.5625 368.640625 1801.035156 368.324219 1800.539062 367.953125 C 1800.042969 367.585938 1799.585938 367.171875 1799.171875 366.71875 C 1798.753906 366.261719 1798.382812 365.769531 1798.0625 365.242188 C 1797.738281 364.714844 1797.46875 364.164062 1797.25 363.585938 C 1797.03125 363.007812 1796.871094 362.414062 1796.769531 361.804688 C 1796.664062 361.195312 1796.621094 360.582031 1796.632812 359.964844 C 1796.648438 359.347656 1796.71875 358.734375 1796.851562 358.132812 C 1796.980469 357.527344 1797.167969 356.941406 1797.410156 356.371094 C 1797.652344 355.804688 1797.949219 355.265625 1798.292969 354.753906 C 1798.640625 354.242188 1799.03125 353.765625 1799.46875 353.328125 C 1799.90625 352.890625 1800.378906 352.5 1800.890625 352.152344 C 1801.402344 351.808594 1801.941406 351.511719 1802.511719 351.269531 C 1803.078125 351.027344 1803.664062 350.839844 1804.269531 350.707031 C 1804.871094 350.578125 1805.480469 350.503906 1806.101562 350.492188 C 1806.71875 350.476562 1807.332031 350.519531 1807.941406 350.625 C 1808.550781 350.726562 1809.144531 350.886719 1809.722656 351.101562 C 1827.625 358.695312 1845.5625 366.914062 1863.0625 375.492188 C 1863.773438 375.847656 1864.429688 376.285156 1865.03125 376.804688 C 1865.636719 377.324219 1866.167969 377.90625 1866.625 378.558594 C 1867.085938 379.207031 1867.457031 379.902344 1867.746094 380.644531 C 1868.035156 381.386719 1868.226562 382.152344 1868.328125 382.941406 Z M 1761.359375 337.433594 C 1761.574219 339.011719 1761.410156 340.550781 1760.863281 342.046875 C 1760.644531 342.644531 1760.371094 343.21875 1760.042969 343.761719 C 1759.710938 344.304688 1759.332031 344.8125 1758.902344 345.28125 C 1758.472656 345.75 1758.003906 346.171875 1757.488281 346.546875 C 1756.976562 346.925781 1756.433594 347.246094 1755.855469 347.515625 C 1755.277344 347.785156 1754.683594 347.996094 1754.0625 348.148438 C 1753.445312 348.296875 1752.820312 348.386719 1752.183594 348.417969 C 1751.550781 348.445312 1750.917969 348.410156 1750.289062 348.3125 C 1749.660156 348.21875 1749.046875 348.0625 1748.449219 347.84375 C 1730.449219 341.339844 1712.066406 335.234375 1693.757812 329.703125 C 1693.148438 329.515625 1692.566406 329.273438 1692.003906 328.972656 C 1691.445312 328.671875 1690.917969 328.320312 1690.425781 327.914062 C 1689.9375 327.507812 1689.488281 327.0625 1689.085938 326.570312 C 1688.683594 326.074219 1688.332031 325.546875 1688.03125 324.988281 C 1687.734375 324.425781 1687.492188 323.839844 1687.308594 323.230469 C 1687.125 322.621094 1687 322 1686.9375 321.367188 C 1686.878906 320.734375 1686.878906 320.101562 1686.941406 319.46875 C 1687.003906 318.832031 1687.128906 318.214844 1687.3125 317.605469 C 1687.496094 316.996094 1687.738281 316.410156 1688.039062 315.847656 C 1688.339844 315.289062 1688.691406 314.761719 1689.09375 314.269531 C 1689.5 313.777344 1689.949219 313.328125 1690.4375 312.925781 C 1690.929688 312.523438 1691.457031 312.171875 1692.019531 311.871094 C 1692.578125 311.570312 1693.164062 311.328125 1693.773438 311.140625 C 1694.382812 310.957031 1695.003906 310.832031 1695.636719 310.769531 C 1696.269531 310.707031 1696.902344 310.707031 1697.535156 310.769531 C 1698.171875 310.832031 1698.792969 310.953125 1699.402344 311.136719 C 1718.015625 316.773438 1736.753906 322.980469 1755.066406 329.632812 C 1755.898438 329.933594 1756.671875 330.34375 1757.390625 330.855469 C 1758.109375 331.367188 1758.746094 331.96875 1759.300781 332.65625 C 1759.855469 333.34375 1760.308594 334.09375 1760.65625 334.902344 C 1761.007812 335.714844 1761.242188 336.558594 1761.359375 337.433594 Z M 1650.070312 303.664062 C 1650.246094 304.875 1650.183594 306.074219 1649.875 307.257812 C 1649.726562 307.875 1649.515625 308.472656 1649.246094 309.046875 C 1648.980469 309.625 1648.65625 310.167969 1648.28125 310.683594 C 1647.90625 311.195312 1647.484375 311.664062 1647.015625 312.09375 C 1646.546875 312.523438 1646.042969 312.90625 1645.5 313.234375 C 1644.957031 313.566406 1644.386719 313.839844 1643.789062 314.058594 C 1643.191406 314.277344 1642.582031 314.433594 1641.953125 314.53125 C 1641.324219 314.628906 1640.691406 314.664062 1640.058594 314.636719 C 1639.421875 314.613281 1638.796875 314.523438 1638.179688 314.375 C 1619.570312 309.863281 1600.628906 305.785156 1581.890625 302.464844 C 1581.265625 302.351562 1580.65625 302.175781 1580.0625 301.941406 C 1579.472656 301.707031 1578.910156 301.414062 1578.375 301.070312 C 1577.839844 300.722656 1577.34375 300.328125 1576.886719 299.882812 C 1576.429688 299.441406 1576.019531 298.957031 1575.660156 298.433594 C 1575.296875 297.90625 1574.992188 297.351562 1574.738281 296.769531 C 1574.488281 296.183594 1574.296875 295.578125 1574.164062 294.957031 C 1574.027344 294.335938 1573.957031 293.703125 1573.949219 293.066406 C 1573.941406 292.429688 1573.992188 291.800781 1574.109375 291.171875 C 1574.226562 290.546875 1574.402344 289.9375 1574.636719 289.347656 C 1574.871094 288.753906 1575.164062 288.191406 1575.511719 287.65625 C 1575.859375 287.121094 1576.253906 286.628906 1576.699219 286.171875 C 1577.140625 285.714844 1577.625 285.308594 1578.152344 284.945312 C 1578.675781 284.585938 1579.230469 284.28125 1579.816406 284.027344 C 1580.402344 283.777344 1581.003906 283.585938 1581.628906 283.453125 C 1582.25 283.320312 1582.882812 283.25 1583.519531 283.242188 C 1584.15625 283.234375 1584.785156 283.289062 1585.414062 283.40625 C 1604.527344 286.96875 1623.816406 291.09375 1642.78125 295.703125 C 1643.714844 295.933594 1644.59375 296.289062 1645.421875 296.777344 C 1646.25 297.265625 1646.988281 297.867188 1647.636719 298.574219 C 1648.285156 299.28125 1648.816406 300.070312 1649.234375 300.9375 C 1649.648438 301.804688 1649.925781 302.710938 1650.074219 303.660156 Z M 1535.765625 282.574219 C 1535.875 283.402344 1535.890625 284.230469 1535.808594 285.0625 C 1535.730469 285.695312 1535.589844 286.3125 1535.390625 286.917969 C 1535.191406 287.523438 1534.933594 288.101562 1534.617188 288.65625 C 1534.300781 289.210938 1533.9375 289.726562 1533.519531 290.210938 C 1533.101562 290.691406 1532.640625 291.128906 1532.136719 291.519531 C 1531.632812 291.910156 1531.097656 292.246094 1530.527344 292.53125 C 1529.957031 292.816406 1529.367188 293.042969 1528.75 293.214844 C 1528.136719 293.382812 1527.511719 293.488281 1526.875 293.53125 C 1526.238281 293.578125 1525.605469 293.558594 1524.972656 293.480469 C 1505.933594 291.179688 1486.640625 289.203125 1467.640625 287.921875 C 1467.007812 287.878906 1466.382812 287.773438 1465.765625 287.609375 C 1465.152344 287.441406 1464.558594 287.214844 1463.988281 286.933594 C 1463.417969 286.648438 1462.882812 286.3125 1462.378906 285.921875 C 1461.875 285.535156 1461.414062 285.097656 1460.996094 284.621094 C 1460.578125 284.140625 1460.210938 283.621094 1459.894531 283.070312 C 1459.578125 282.519531 1459.316406 281.941406 1459.113281 281.335938 C 1458.910156 280.734375 1458.769531 280.117188 1458.6875 279.484375 C 1458.605469 278.851562 1458.589844 278.21875 1458.632812 277.582031 C 1458.675781 276.949219 1458.78125 276.324219 1458.949219 275.707031 C 1459.113281 275.09375 1459.339844 274.503906 1459.625 273.933594 C 1459.90625 273.363281 1460.242188 272.824219 1460.632812 272.320312 C 1461.023438 271.816406 1461.457031 271.355469 1461.9375 270.9375 C 1462.417969 270.519531 1462.933594 270.152344 1463.484375 269.835938 C 1464.039062 269.519531 1464.617188 269.257812 1465.21875 269.054688 C 1465.824219 268.851562 1466.441406 268.710938 1467.070312 268.628906 C 1467.703125 268.550781 1468.335938 268.53125 1468.972656 268.574219 C 1488.320312 269.90625 1507.988281 271.777344 1527.398438 274.273438 C 1527.929688 274.34375 1528.449219 274.453125 1528.957031 274.605469 C 1529.46875 274.761719 1529.960938 274.957031 1530.441406 275.191406 C 1530.917969 275.425781 1531.375 275.699219 1531.808594 276.007812 C 1532.242188 276.320312 1532.648438 276.664062 1533.023438 277.042969 C 1533.398438 277.417969 1533.742188 277.824219 1534.050781 278.257812 C 1534.363281 278.691406 1534.632812 279.148438 1534.867188 279.628906 C 1535.101562 280.105469 1535.296875 280.601562 1535.449219 281.113281 C 1535.601562 281.621094 1535.710938 282.140625 1535.777344 282.671875 Z M 1419.832031 274.714844 L 1420.015625 276.058594 C 1420.011719 276.699219 1419.945312 277.332031 1419.820312 277.957031 C 1419.691406 278.582031 1419.503906 279.1875 1419.253906 279.777344 C 1419.007812 280.367188 1418.703125 280.925781 1418.34375 281.453125 C 1417.988281 281.980469 1417.582031 282.46875 1417.125 282.917969 C 1416.671875 283.367188 1416.175781 283.765625 1415.644531 284.113281 C 1415.109375 284.464844 1414.546875 284.761719 1413.953125 285 C 1413.363281 285.238281 1412.753906 285.417969 1412.125 285.535156 C 1411.496094 285.652344 1410.863281 285.710938 1410.226562 285.703125 C 1391.082031 285.519531 1371.738281 286.046875 1352.738281 286.917969 C 1352.101562 286.949219 1351.464844 286.921875 1350.835938 286.832031 C 1350.203125 286.738281 1349.585938 286.585938 1348.984375 286.375 C 1348.382812 286.160156 1347.808594 285.890625 1347.257812 285.566406 C 1346.710938 285.238281 1346.199219 284.863281 1345.722656 284.4375 C 1345.246094 284.007812 1344.820312 283.539062 1344.4375 283.027344 C 1344.054688 282.515625 1343.726562 281.972656 1343.453125 281.398438 C 1343.175781 280.820312 1342.960938 280.222656 1342.800781 279.605469 C 1342.644531 278.984375 1342.550781 278.359375 1342.515625 277.71875 C 1342.480469 277.082031 1342.511719 276.449219 1342.601562 275.816406 C 1342.695312 275.183594 1342.84375 274.566406 1343.058594 273.964844 C 1343.269531 273.363281 1343.542969 272.789062 1343.867188 272.238281 C 1344.195312 271.691406 1344.570312 271.179688 1344.996094 270.703125 C 1345.425781 270.230469 1345.894531 269.800781 1346.40625 269.417969 C 1346.917969 269.035156 1347.460938 268.707031 1348.035156 268.433594 C 1348.613281 268.15625 1349.210938 267.941406 1349.828125 267.785156 C 1350.445312 267.625 1351.074219 267.53125 1351.710938 267.496094 C 1371.140625 266.519531 1390.644531 266.117188 1410.226562 266.289062 C 1410.816406 266.289062 1411.398438 266.34375 1411.972656 266.449219 C 1412.550781 266.554688 1413.113281 266.710938 1413.664062 266.921875 C 1414.210938 267.128906 1414.738281 267.386719 1415.238281 267.6875 C 1415.742188 267.992188 1416.214844 268.339844 1416.652344 268.726562 C 1417.089844 269.117188 1417.492188 269.542969 1417.855469 270.003906 C 1418.214844 270.46875 1418.535156 270.957031 1418.804688 271.476562 C 1419.078125 271.996094 1419.304688 272.539062 1419.476562 273.097656 C 1419.652344 273.65625 1419.773438 274.230469 1419.847656 274.8125 Z M 1302.769531 280.847656 L 1302.808594 281.136719 C 1302.910156 281.753906 1302.949219 282.371094 1302.921875 282.996094 C 1302.894531 283.621094 1302.808594 284.234375 1302.65625 284.839844 C 1302.503906 285.445312 1302.292969 286.027344 1302.023438 286.589844 C 1301.75 287.152344 1301.425781 287.683594 1301.046875 288.179688 C 1300.667969 288.671875 1300.242188 289.125 1299.769531 289.535156 C 1299.300781 289.941406 1298.792969 290.300781 1298.246094 290.605469 C 1297.703125 290.910156 1297.132812 291.15625 1296.539062 291.34375 C 1295.941406 291.535156 1295.335938 291.660156 1294.714844 291.722656 C 1282.28125 293.070312 1269.777344 294.625 1256 296.496094 C 1249.902344 297.328125 1243.898438 298.140625 1237.800781 298.972656 C 1237.171875 299.058594 1236.539062 299.082031 1235.902344 299.042969 C 1235.269531 299.003906 1234.644531 298.902344 1234.027344 298.738281 C 1233.414062 298.578125 1232.820312 298.355469 1232.246094 298.078125 C 1231.675781 297.800781 1231.136719 297.46875 1230.628906 297.082031 C 1230.125 296.695312 1229.660156 296.265625 1229.238281 295.789062 C 1228.816406 295.3125 1228.445312 294.800781 1228.125 294.25 C 1227.804688 293.699219 1227.539062 293.125 1227.332031 292.523438 C 1227.125 291.921875 1226.980469 291.304688 1226.894531 290.675781 C 1226.808594 290.042969 1226.785156 289.410156 1226.824219 288.777344 C 1226.863281 288.140625 1226.964844 287.515625 1227.125 286.898438 C 1227.289062 286.285156 1227.507812 285.691406 1227.789062 285.121094 C 1228.066406 284.546875 1228.398438 284.007812 1228.785156 283.503906 C 1229.167969 282.996094 1229.601562 282.53125 1230.078125 282.109375 C 1230.554688 281.6875 1231.066406 281.316406 1231.617188 280.996094 C 1232.167969 280.675781 1232.742188 280.414062 1233.34375 280.207031 C 1233.945312 280 1234.5625 279.851562 1235.191406 279.765625 C 1241.386719 278.925781 1247.53125 278.089844 1253.722656 277.246094 C 1267.695312 275.347656 1280.082031 273.664062 1292.726562 272.433594 C 1293.335938 272.382812 1293.941406 272.390625 1294.546875 272.460938 C 1295.152344 272.527344 1295.746094 272.652344 1296.328125 272.839844 C 1296.910156 273.023438 1297.46875 273.261719 1298 273.558594 C 1298.535156 273.851562 1299.035156 274.195312 1299.5 274.589844 C 1299.96875 274.980469 1300.390625 275.414062 1300.773438 275.890625 C 1301.152344 276.367188 1301.484375 276.875 1301.765625 277.417969 C 1302.046875 277.957031 1302.273438 278.523438 1302.441406 279.109375 C 1302.613281 279.691406 1302.722656 280.289062 1302.777344 280.898438 Z M 1187.648438 297.28125 C 1187.757812 297.882812 1187.808594 298.488281 1187.800781 299.097656 C 1187.792969 299.707031 1187.722656 300.3125 1187.59375 300.90625 C 1187.46875 301.503906 1187.28125 302.082031 1187.039062 302.644531 C 1186.796875 303.203125 1186.5 303.734375 1186.152344 304.234375 C 1185.804688 304.738281 1185.414062 305.199219 1184.972656 305.625 C 1184.535156 306.050781 1184.058594 306.425781 1183.542969 306.753906 C 1183.03125 307.085938 1182.488281 307.359375 1181.921875 307.582031 C 1181.351562 307.804688 1180.765625 307.96875 1180.164062 308.078125 C 1168.015625 310.070312 1156.257812 312.0625 1143.972656 314.121094 L 1123.226562 317.625 C 1122.597656 317.730469 1121.964844 317.769531 1121.328125 317.75 C 1120.691406 317.726562 1120.066406 317.644531 1119.445312 317.5 C 1118.824219 317.355469 1118.226562 317.148438 1117.644531 316.886719 C 1117.066406 316.625 1116.519531 316.304688 1116 315.933594 C 1115.484375 315.5625 1115.007812 315.144531 1114.574219 314.679688 C 1114.140625 314.214844 1113.753906 313.710938 1113.417969 313.171875 C 1113.082031 312.628906 1112.804688 312.0625 1112.578125 311.464844 C 1112.355469 310.871094 1112.191406 310.257812 1112.089844 309.628906 C 1111.984375 309 1111.945312 308.371094 1111.96875 307.734375 C 1111.988281 307.097656 1112.070312 306.46875 1112.21875 305.847656 C 1112.363281 305.230469 1112.566406 304.628906 1112.828125 304.050781 C 1113.09375 303.472656 1113.410156 302.921875 1113.78125 302.40625 C 1114.152344 301.886719 1114.570312 301.414062 1115.035156 300.976562 C 1115.5 300.542969 1116.003906 300.160156 1116.546875 299.824219 C 1117.085938 299.488281 1117.65625 299.207031 1118.25 298.984375 C 1118.847656 298.761719 1119.457031 298.597656 1120.085938 298.492188 L 1141.03125 295.011719 C 1153.171875 292.96875 1164.933594 290.980469 1176.980469 288.949219 C 1177.605469 288.84375 1178.238281 288.804688 1178.875 288.828125 C 1179.511719 288.851562 1180.140625 288.945312 1180.757812 289.097656 C 1181.375 289.253906 1181.96875 289.472656 1182.539062 289.753906 C 1183.113281 290.03125 1183.648438 290.367188 1184.152344 290.761719 C 1184.652344 291.152344 1185.109375 291.59375 1185.519531 292.078125 C 1185.929688 292.566406 1186.285156 293.089844 1186.585938 293.652344 C 1186.886719 294.214844 1187.128906 294.800781 1187.304688 295.410156 C 1187.484375 296.023438 1187.597656 296.644531 1187.648438 297.28125 Z M 1072.855469 316.160156 C 1072.96875 316.765625 1073.019531 317.375 1073.007812 317.988281 C 1073 318.601562 1072.929688 319.210938 1072.796875 319.8125 C 1072.667969 320.410156 1072.480469 320.992188 1072.230469 321.554688 C 1071.984375 322.117188 1071.6875 322.652344 1071.332031 323.15625 C 1070.980469 323.65625 1070.582031 324.121094 1070.136719 324.542969 C 1069.691406 324.96875 1069.210938 325.34375 1068.691406 325.671875 C 1068.171875 326 1067.621094 326.273438 1067.050781 326.492188 C 1066.476562 326.710938 1065.882812 326.871094 1065.277344 326.972656 C 1053.898438 328.515625 1042.894531 330.308594 1031.710938 331.828125 C 1023.691406 332.917969 1015.867188 333.980469 1007.703125 335.089844 C 1007.070312 335.164062 1006.4375 335.175781 1005.804688 335.121094 C 1005.167969 335.070312 1004.546875 334.957031 1003.933594 334.785156 C 1003.320312 334.609375 1002.734375 334.378906 1002.167969 334.085938 C 1001.601562 333.796875 1001.066406 333.453125 1000.570312 333.058594 C 1000.070312 332.664062 999.613281 332.222656 999.203125 331.738281 C 998.789062 331.253906 998.429688 330.730469 998.121094 330.175781 C 997.8125 329.621094 997.558594 329.039062 997.363281 328.433594 C 997.167969 327.828125 997.035156 327.207031 996.960938 326.574219 C 996.886719 325.941406 996.878906 325.308594 996.929688 324.675781 C 996.980469 324.042969 997.09375 323.417969 997.269531 322.804688 C 997.441406 322.195312 997.675781 321.605469 997.964844 321.039062 C 998.257812 320.472656 998.597656 319.941406 998.996094 319.441406 C 999.390625 318.941406 999.832031 318.488281 1000.316406 318.074219 C 1000.800781 317.664062 1001.320312 317.300781 1001.878906 316.992188 C 1002.433594 316.683594 1003.015625 316.429688 1003.621094 316.234375 C 1004.226562 316.039062 1004.84375 315.90625 1005.476562 315.832031 C 1013.351562 314.761719 1021.273438 313.6875 1029.148438 312.617188 C 1040.332031 311.09375 1051.039062 309.640625 1062.234375 307.824219 C 1062.859375 307.734375 1063.484375 307.703125 1064.113281 307.742188 C 1064.742188 307.777344 1065.359375 307.875 1065.96875 308.039062 C 1066.574219 308.203125 1067.160156 308.425781 1067.722656 308.707031 C 1068.285156 308.992188 1068.8125 309.328125 1069.304688 309.71875 C 1069.800781 310.109375 1070.246094 310.546875 1070.652344 311.03125 C 1071.054688 311.515625 1071.40625 312.035156 1071.703125 312.589844 C 1072 313.144531 1072.238281 313.722656 1072.414062 314.328125 C 1072.59375 314.929688 1072.707031 315.546875 1072.757812 316.175781 Z M 958.445312 329.5625 L 958.527344 330.1875 C 958.574219 330.824219 958.558594 331.457031 958.480469 332.089844 C 958.398438 332.722656 958.257812 333.34375 958.058594 333.949219 C 957.855469 334.554688 957.597656 335.132812 957.28125 335.6875 C 956.964844 336.242188 956.597656 336.757812 956.179688 337.242188 C 955.761719 337.722656 955.300781 338.160156 954.796875 338.550781 C 954.289062 338.941406 953.753906 339.277344 953.183594 339.5625 C 952.609375 339.847656 952.015625 340.070312 951.402344 340.238281 C 950.785156 340.40625 950.160156 340.511719 949.523438 340.554688 C 928.785156 341.957031 909.515625 342.667969 890.734375 342.628906 C 890.09375 342.628906 889.457031 342.566406 888.828125 342.441406 C 888.195312 342.316406 887.585938 342.132812 886.992188 341.886719 C 886.398438 341.644531 885.835938 341.34375 885.300781 340.984375 C 884.765625 340.628906 884.273438 340.226562 883.816406 339.769531 C 883.363281 339.316406 882.957031 338.824219 882.601562 338.289062 C 882.242188 337.757812 881.941406 337.195312 881.695312 336.601562 C 881.449219 336.007812 881.261719 335.394531 881.136719 334.765625 C 881.011719 334.136719 880.949219 333.5 880.945312 332.859375 C 880.945312 332.21875 881.007812 331.582031 881.132812 330.953125 C 881.257812 330.320312 881.441406 329.710938 881.6875 329.117188 C 881.933594 328.523438 882.234375 327.960938 882.589844 327.425781 C 882.945312 326.890625 883.351562 326.398438 883.804688 325.941406 C 884.257812 325.488281 884.753906 325.082031 885.285156 324.726562 C 885.820312 324.367188 886.382812 324.066406 886.976562 323.820312 C 887.570312 323.574219 888.179688 323.386719 888.808594 323.261719 C 889.4375 323.136719 890.074219 323.074219 890.71875 323.070312 C 909.0625 323.121094 927.839844 322.425781 948.132812 320.988281 C 948.753906 320.945312 949.371094 320.960938 949.988281 321.035156 C 950.605469 321.109375 951.207031 321.242188 951.800781 321.433594 C 952.390625 321.625 952.957031 321.871094 953.5 322.171875 C 954.042969 322.472656 954.554688 322.820312 955.03125 323.21875 C 955.507812 323.617188 955.941406 324.058594 956.332031 324.539062 C 956.726562 325.019531 957.066406 325.535156 957.359375 326.082031 C 957.652344 326.628906 957.890625 327.199219 958.074219 327.792969 C 958.257812 328.386719 958.382812 328.992188 958.449219 329.609375 Z M 842.269531 328.921875 C 842.367188 329.667969 842.386719 330.414062 842.332031 331.164062 C 842.269531 331.800781 842.148438 332.421875 841.964844 333.035156 C 841.78125 333.644531 841.542969 334.230469 841.242188 334.792969 C 840.941406 335.359375 840.589844 335.886719 840.1875 336.378906 C 839.785156 336.875 839.335938 337.324219 838.84375 337.730469 C 838.351562 338.132812 837.824219 338.488281 837.261719 338.789062 C 836.699219 339.089844 836.113281 339.332031 835.503906 339.519531 C 834.894531 339.703125 834.269531 339.828125 833.636719 339.890625 C 833.003906 339.953125 832.367188 339.953125 831.734375 339.890625 C 812.046875 338.046875 792.539062 335.058594 773.203125 330.929688 C 772.597656 330.78125 772.011719 330.574219 771.445312 330.3125 C 770.875 330.050781 770.339844 329.734375 769.832031 329.371094 C 769.328125 329.003906 768.859375 328.59375 768.433594 328.136719 C 768.007812 327.679688 767.628906 327.1875 767.296875 326.65625 C 766.964844 326.128906 766.6875 325.570312 766.464844 324.988281 C 766.238281 324.40625 766.074219 323.804688 765.964844 323.191406 C 765.859375 322.574219 765.808594 321.957031 765.820312 321.332031 C 765.835938 320.707031 765.90625 320.089844 766.035156 319.476562 C 766.167969 318.867188 766.355469 318.273438 766.601562 317.699219 C 766.847656 317.125 767.148438 316.582031 767.5 316.0625 C 767.851562 315.546875 768.25 315.070312 768.691406 314.628906 C 769.136719 314.191406 769.617188 313.796875 770.140625 313.449219 C 770.660156 313.105469 771.207031 312.8125 771.785156 312.570312 C 772.359375 312.332031 772.953125 312.148438 773.566406 312.023438 C 774.179688 311.898438 774.796875 311.832031 775.421875 311.824219 C 776.046875 311.820312 776.667969 311.875 777.28125 311.988281 C 795.96875 315.972656 814.828125 318.855469 833.859375 320.628906 C 834.386719 320.695312 834.90625 320.804688 835.417969 320.953125 C 835.925781 321.105469 836.421875 321.296875 836.902344 321.53125 C 837.378906 321.761719 837.835938 322.03125 838.273438 322.339844 C 838.707031 322.648438 839.113281 322.988281 839.492188 323.363281 C 839.871094 323.738281 840.214844 324.140625 840.527344 324.574219 C 840.839844 325.003906 841.113281 325.460938 841.351562 325.9375 C 841.585938 326.414062 841.78125 326.90625 841.9375 327.417969 C 842.09375 327.925781 842.207031 328.445312 842.277344 328.972656 Z M 728.941406 304.230469 C 729.15625 305.8125 728.988281 307.351562 728.445312 308.847656 C 728.226562 309.445312 727.953125 310.015625 727.621094 310.558594 C 727.292969 311.105469 726.914062 311.609375 726.484375 312.078125 C 726.054688 312.546875 725.582031 312.972656 725.070312 313.347656 C 724.558594 313.722656 724.011719 314.046875 723.4375 314.316406 C 722.859375 314.585938 722.261719 314.792969 721.644531 314.945312 C 721.027344 315.097656 720.398438 315.1875 719.765625 315.214844 C 719.128906 315.242188 718.496094 315.210938 717.867188 315.113281 C 717.238281 315.015625 716.625 314.859375 716.027344 314.640625 C 703.992188 310.265625 692.074219 305.332031 680.625 299.894531 C 674.253906 296.898438 667.902344 293.703125 661.722656 290.339844 C 661.199219 290.019531 660.707031 289.652344 660.25 289.238281 C 659.796875 288.828125 659.382812 288.375 659.015625 287.882812 C 658.644531 287.390625 658.324219 286.871094 658.054688 286.316406 C 657.785156 285.765625 657.570312 285.191406 657.410156 284.597656 C 657.246094 284.003906 657.144531 283.402344 657.097656 282.789062 C 657.050781 282.175781 657.0625 281.566406 657.132812 280.953125 C 657.203125 280.34375 657.332031 279.746094 657.515625 279.15625 C 657.699219 278.570312 657.9375 278.007812 658.226562 277.464844 C 658.519531 276.925781 658.859375 276.414062 659.246094 275.9375 C 659.636719 275.460938 660.066406 275.027344 660.535156 274.632812 C 661.007812 274.238281 661.511719 273.890625 662.050781 273.589844 C 662.585938 273.292969 663.148438 273.046875 663.730469 272.855469 C 664.316406 272.664062 664.910156 272.527344 665.523438 272.449219 C 666.132812 272.371094 666.742188 272.351562 667.355469 272.386719 C 667.96875 272.425781 668.574219 272.519531 669.171875 272.671875 C 669.765625 272.828125 670.339844 273.035156 670.898438 273.296875 C 676.804688 276.453125 682.839844 279.496094 688.851562 282.347656 C 699.820312 287.507812 711.179688 292.269531 722.648438 296.433594 C 723.476562 296.734375 724.253906 297.140625 724.972656 297.65625 C 725.691406 298.167969 726.328125 298.769531 726.882812 299.457031 C 727.433594 300.144531 727.886719 300.890625 728.238281 301.703125 C 728.585938 302.515625 728.820312 303.355469 728.941406 304.230469 Z M 626.949219 249.296875 C 627.082031 250.242188 627.070312 251.183594 626.921875 252.128906 C 626.769531 253.070312 626.488281 253.972656 626.074219 254.832031 C 625.65625 255.691406 625.125 256.46875 624.480469 257.171875 C 623.832031 257.875 623.097656 258.46875 622.277344 258.953125 C 621.453125 259.4375 620.578125 259.796875 619.652344 260.023438 C 618.726562 260.25 617.785156 260.335938 616.832031 260.285156 C 615.878906 260.234375 614.953125 260.046875 614.054688 259.722656 C 613.15625 259.398438 612.324219 258.949219 611.558594 258.378906 C 595.667969 246.515625 580.621094 233.664062 566.417969 219.824219 C 565.933594 219.386719 565.496094 218.90625 565.105469 218.382812 C 564.71875 217.855469 564.386719 217.296875 564.113281 216.707031 C 563.835938 216.113281 563.621094 215.5 563.472656 214.867188 C 563.320312 214.230469 563.234375 213.585938 563.210938 212.933594 C 563.191406 212.28125 563.234375 211.636719 563.34375 210.992188 C 563.453125 210.347656 563.625 209.722656 563.863281 209.113281 C 564.097656 208.503906 564.390625 207.925781 564.746094 207.378906 C 565.097656 206.828125 565.503906 206.320312 565.957031 205.851562 C 566.414062 205.386719 566.910156 204.96875 567.453125 204.601562 C 567.992188 204.234375 568.5625 203.925781 569.164062 203.675781 C 569.765625 203.421875 570.386719 203.234375 571.027344 203.109375 C 571.667969 202.980469 572.316406 202.921875 572.96875 202.925781 C 573.621094 202.929688 574.265625 203 574.90625 203.136719 C 575.542969 203.273438 576.164062 203.46875 576.761719 203.730469 C 577.359375 203.992188 577.925781 204.308594 578.460938 204.683594 C 578.996094 205.058594 579.488281 205.480469 579.933594 205.957031 C 593.523438 219.195312 607.925781 231.484375 623.136719 242.820312 C 624.199219 243.589844 625.070312 244.535156 625.746094 245.65625 C 626.425781 246.777344 626.859375 247.984375 627.046875 249.28125 Z M 543.617188 168.644531 C 543.691406 169.164062 543.722656 169.6875 543.710938 170.214844 C 543.699219 170.742188 543.648438 171.265625 543.550781 171.78125 C 543.453125 172.300781 543.316406 172.804688 543.136719 173.300781 C 542.960938 173.796875 542.742188 174.273438 542.484375 174.734375 C 542.226562 175.195312 541.9375 175.628906 541.609375 176.042969 C 541.28125 176.453125 540.921875 176.835938 540.53125 177.191406 C 540.140625 177.546875 539.722656 177.863281 539.28125 178.152344 C 538.839844 178.4375 538.378906 178.683594 537.894531 178.894531 C 537.410156 179.105469 536.914062 179.273438 536.402344 179.40625 C 535.894531 179.535156 535.375 179.621094 534.851562 179.664062 C 534.328125 179.710938 533.800781 179.714844 533.277344 179.671875 C 532.75 179.632812 532.234375 179.550781 531.722656 179.425781 C 531.210938 179.300781 530.710938 179.132812 530.226562 178.925781 C 529.742188 178.722656 529.277344 178.476562 528.832031 178.195312 C 528.390625 177.914062 527.96875 177.597656 527.578125 177.246094 C 527.183594 176.894531 526.820312 176.515625 526.488281 176.105469 C 514.398438 161.269531 502.714844 145.109375 491.597656 128.429688 C 491.207031 127.902344 490.871094 127.335938 490.59375 126.738281 C 490.320312 126.140625 490.105469 125.523438 489.953125 124.882812 C 489.804688 124.242188 489.71875 123.59375 489.699219 122.933594 C 489.679688 122.277344 489.730469 121.621094 489.84375 120.972656 C 489.960938 120.324219 490.136719 119.695312 490.382812 119.082031 C 490.625 118.472656 490.925781 117.890625 491.289062 117.339844 C 491.648438 116.789062 492.0625 116.28125 492.527344 115.816406 C 492.992188 115.351562 493.5 114.9375 494.050781 114.574219 C 494.601562 114.210938 495.179688 113.90625 495.792969 113.664062 C 496.40625 113.417969 497.035156 113.238281 497.683594 113.125 C 498.332031 113.007812 498.984375 112.957031 499.640625 112.976562 C 500.300781 112.992188 500.949219 113.078125 501.589844 113.226562 C 502.230469 113.375 502.851562 113.589844 503.449219 113.863281 C 504.046875 114.140625 504.609375 114.472656 505.140625 114.867188 C 505.671875 115.257812 506.15625 115.695312 506.59375 116.1875 C 507.035156 116.675781 507.421875 117.207031 507.753906 117.773438 C 518.46875 134.019531 529.816406 149.492188 541.496094 163.847656 C 542.6875 165.234375 543.425781 166.828125 543.714844 168.632812 Z M 479.464844 71.890625 C 479.546875 72.453125 479.582031 73.015625 479.566406 73.585938 C 479.550781 74.152344 479.488281 74.714844 479.375 75.273438 C 479.261719 75.828125 479.097656 76.371094 478.890625 76.898438 C 478.679688 77.429688 478.425781 77.933594 478.128906 78.417969 C 477.828125 78.902344 477.492188 79.355469 477.113281 79.78125 C 476.734375 80.203125 476.320312 80.59375 475.875 80.945312 C 475.429688 81.296875 474.957031 81.605469 474.453125 81.875 C 473.953125 82.140625 473.433594 82.363281 472.890625 82.539062 C 472.351562 82.71875 471.800781 82.84375 471.238281 82.925781 C 470.675781 83.003906 470.109375 83.035156 469.542969 83.015625 C 468.972656 82.996094 468.414062 82.925781 467.855469 82.808594 C 467.300781 82.6875 466.757812 82.523438 466.234375 82.308594 C 465.707031 82.09375 465.203125 81.835938 464.722656 81.535156 C 464.242188 81.230469 463.789062 80.890625 463.367188 80.507812 C 462.949219 80.125 462.5625 79.710938 462.214844 79.261719 C 461.867188 78.808594 461.5625 78.335938 461.296875 77.832031 C 452.222656 61.070312 443.457031 43.335938 435.253906 25.089844 C 434.957031 24.503906 434.722656 23.898438 434.550781 23.265625 C 434.378906 22.632812 434.269531 21.992188 434.226562 21.339844 C 434.1875 20.6875 434.210938 20.035156 434.296875 19.386719 C 434.386719 18.738281 434.542969 18.105469 434.757812 17.488281 C 434.976562 16.871094 435.253906 16.28125 435.589844 15.722656 C 435.925781 15.160156 436.316406 14.640625 436.757812 14.15625 C 437.203125 13.675781 437.6875 13.242188 438.21875 12.859375 C 438.75 12.476562 439.3125 12.148438 439.90625 11.878906 C 440.503906 11.609375 441.121094 11.402344 441.761719 11.257812 C 442.398438 11.113281 443.042969 11.035156 443.699219 11.023438 C 444.351562 11.007812 445.003906 11.058594 445.644531 11.179688 C 446.289062 11.296875 446.914062 11.476562 447.523438 11.722656 C 448.128906 11.96875 448.703125 12.269531 449.25 12.632812 C 449.796875 12.992188 450.300781 13.40625 450.761719 13.867188 C 451.222656 14.332031 451.632812 14.835938 451.996094 15.382812 C 452.355469 15.929688 452.65625 16.507812 452.898438 17.117188 C 460.945312 34.945312 469.503906 52.21875 478.375 68.566406 C 478.949219 69.605469 479.34375 70.710938 479.558594 71.875 Z M 431.5625 -34.066406 C 431.71875 -33.445312 431.8125 -32.816406 431.84375 -32.175781 C 431.875 -31.535156 431.84375 -30.902344 431.746094 -30.269531 C 431.652344 -29.632812 431.496094 -29.015625 431.28125 -28.414062 C 431.066406 -27.8125 430.792969 -27.234375 430.464844 -26.6875 C 430.132812 -26.136719 429.753906 -25.625 429.324219 -25.152344 C 428.894531 -24.679688 428.421875 -24.25 427.90625 -23.871094 C 427.390625 -23.488281 426.84375 -23.164062 426.265625 -22.890625 C 425.6875 -22.617188 425.085938 -22.402344 424.464844 -22.246094 C 423.84375 -22.089844 423.214844 -22 422.574219 -21.96875 C 421.9375 -21.9375 421.300781 -21.96875 420.667969 -22.0625 C 420.035156 -22.15625 419.417969 -22.3125 418.8125 -22.527344 C 418.210938 -22.746094 417.636719 -23.019531 417.085938 -23.347656 C 416.539062 -23.675781 416.027344 -24.058594 415.550781 -24.488281 C 415.078125 -24.917969 414.652344 -25.390625 414.269531 -25.902344 C 413.890625 -26.417969 413.5625 -26.964844 413.289062 -27.542969 C 413.015625 -28.121094 412.800781 -28.722656 412.644531 -29.34375 C 405.949219 -47.308594 399.59375 -66.003906 393.742188 -84.964844 C 393.589844 -85.5625 393.492188 -86.167969 393.457031 -86.78125 C 393.417969 -87.394531 393.441406 -88.007812 393.519531 -88.617188 C 393.597656 -89.230469 393.734375 -89.828125 393.929688 -90.410156 C 394.121094 -90.996094 394.371094 -91.554688 394.667969 -92.09375 C 394.96875 -92.632812 395.320312 -93.136719 395.714844 -93.605469 C 396.113281 -94.078125 396.550781 -94.507812 397.027344 -94.894531 C 397.503906 -95.28125 398.015625 -95.621094 398.558594 -95.910156 C 399.101562 -96.203125 399.667969 -96.4375 400.253906 -96.621094 C 400.84375 -96.804688 401.445312 -96.929688 402.054688 -96.996094 C 402.667969 -97.066406 403.28125 -97.074219 403.894531 -97.027344 C 404.507812 -96.980469 405.113281 -96.871094 405.703125 -96.707031 C 406.296875 -96.546875 406.871094 -96.328125 407.421875 -96.054688 C 407.976562 -95.78125 408.496094 -95.460938 408.988281 -95.085938 C 409.476562 -94.714844 409.929688 -94.300781 410.339844 -93.839844 C 410.75 -93.382812 411.117188 -92.890625 411.433594 -92.363281 C 411.75 -91.835938 412.015625 -91.28125 412.226562 -90.703125 C 418.007812 -71.929688 424.242188 -53.757812 430.789062 -36.164062 C 431.1875 -35.476562 431.480469 -34.75 431.671875 -33.984375 Z M 396.917969 -145.050781 C 397.042969 -144.425781 397.101562 -143.796875 397.101562 -143.160156 C 397.101562 -142.519531 397.039062 -141.890625 396.914062 -141.265625 C 396.789062 -140.640625 396.601562 -140.03125 396.359375 -139.445312 C 396.113281 -138.855469 395.8125 -138.296875 395.457031 -137.765625 C 395.105469 -137.238281 394.699219 -136.746094 394.25 -136.296875 C 393.796875 -135.847656 393.308594 -135.445312 392.777344 -135.09375 C 392.246094 -134.738281 391.6875 -134.441406 391.097656 -134.195312 C 390.507812 -133.953125 389.898438 -133.769531 389.273438 -133.648438 C 388.648438 -133.523438 388.019531 -133.460938 387.378906 -133.464844 C 386.742188 -133.464844 386.113281 -133.527344 385.488281 -133.652344 C 384.863281 -133.777344 384.253906 -133.960938 383.667969 -134.207031 C 383.078125 -134.453125 382.519531 -134.75 381.988281 -135.105469 C 381.460938 -135.460938 380.96875 -135.863281 380.519531 -136.316406 C 380.070312 -136.765625 379.667969 -137.257812 379.316406 -137.789062 C 378.960938 -138.320312 378.664062 -138.878906 378.417969 -139.46875 C 378.175781 -140.058594 377.992188 -140.664062 377.871094 -141.289062 C 373.238281 -158.800781 368.617188 -177.34375 363.699219 -198.042969 C 363.554688 -198.660156 363.472656 -199.289062 363.449219 -199.925781 C 363.429688 -200.558594 363.46875 -201.191406 363.574219 -201.820312 C 363.675781 -202.445312 363.839844 -203.058594 364.0625 -203.652344 C 364.285156 -204.25 364.566406 -204.816406 364.902344 -205.359375 C 365.234375 -205.898438 365.621094 -206.398438 366.054688 -206.863281 C 366.488281 -207.328125 366.964844 -207.746094 367.480469 -208.117188 C 367.996094 -208.488281 368.542969 -208.808594 369.121094 -209.070312 C 369.703125 -209.335938 370.300781 -209.539062 370.917969 -209.683594 C 371.539062 -209.832031 372.164062 -209.917969 372.800781 -209.945312 C 373.4375 -209.96875 374.070312 -209.929688 374.699219 -209.832031 C 375.328125 -209.730469 375.9375 -209.570312 376.535156 -209.351562 C 377.132812 -209.128906 377.703125 -208.855469 378.246094 -208.519531 C 378.789062 -208.1875 379.292969 -207.804688 379.757812 -207.375 C 380.226562 -206.941406 380.648438 -206.46875 381.019531 -205.953125 C 381.394531 -205.4375 381.714844 -204.890625 381.980469 -204.3125 C 382.246094 -203.734375 382.453125 -203.136719 382.601562 -202.519531 C 387.390625 -182.046875 391.988281 -163.699219 396.597656 -146.328125 Z M 369.953125 -258.160156 C 370.0625 -257.53125 370.113281 -256.898438 370.097656 -256.261719 C 370.085938 -255.625 370.007812 -254.996094 369.871094 -254.375 C 369.734375 -253.753906 369.539062 -253.152344 369.28125 -252.570312 C 369.023438 -251.984375 368.714844 -251.433594 368.347656 -250.914062 C 367.984375 -250.390625 367.570312 -249.910156 367.113281 -249.46875 C 366.652344 -249.027344 366.15625 -248.636719 365.617188 -248.296875 C 365.082031 -247.953125 364.515625 -247.664062 363.921875 -247.433594 C 363.328125 -247.203125 362.71875 -247.03125 362.09375 -246.921875 C 361.464844 -246.8125 360.832031 -246.761719 360.195312 -246.777344 C 359.558594 -246.789062 358.929688 -246.863281 358.308594 -247.003906 C 357.6875 -247.140625 357.085938 -247.335938 356.503906 -247.59375 C 355.921875 -247.847656 355.367188 -248.160156 354.847656 -248.523438 C 354.324219 -248.886719 353.84375 -249.300781 353.402344 -249.761719 C 352.960938 -250.21875 352.570312 -250.71875 352.226562 -251.253906 C 351.886719 -251.792969 351.597656 -252.355469 351.367188 -252.949219 C 351.136719 -253.542969 350.964844 -254.152344 350.851562 -254.78125 L 343.183594 -289.628906 L 338.390625 -311.570312 C 338.253906 -312.191406 338.175781 -312.824219 338.164062 -313.460938 C 338.148438 -314.097656 338.199219 -314.734375 338.308594 -315.363281 C 338.421875 -315.988281 338.59375 -316.601562 338.824219 -317.195312 C 339.058594 -317.792969 339.34375 -318.359375 339.6875 -318.898438 C 340.03125 -319.433594 340.425781 -319.933594 340.867188 -320.394531 C 341.308594 -320.855469 341.789062 -321.269531 342.3125 -321.636719 C 342.835938 -322 343.390625 -322.3125 343.976562 -322.570312 C 344.558594 -322.824219 345.164062 -323.023438 345.789062 -323.160156 C 346.410156 -323.296875 347.042969 -323.375 347.679688 -323.386719 C 348.320312 -323.402344 348.953125 -323.351562 349.582031 -323.242188 C 350.210938 -323.128906 350.820312 -322.957031 351.417969 -322.726562 C 352.011719 -322.492188 352.578125 -322.207031 353.117188 -321.863281 C 353.652344 -321.519531 354.152344 -321.125 354.613281 -320.683594 C 355.074219 -320.242188 355.488281 -319.761719 355.855469 -319.238281 C 356.21875 -318.714844 356.53125 -318.160156 356.789062 -317.574219 C 357.042969 -316.992188 357.242188 -316.386719 357.378906 -315.761719 L 362.179688 -293.777344 C 364.730469 -282.191406 367.242188 -270.550781 369.84375 -258.972656 Z M 344.738281 -371.699219 C 344.855469 -371.070312 344.90625 -370.441406 344.894531 -369.804688 C 344.882812 -369.164062 344.8125 -368.535156 344.675781 -367.914062 C 344.542969 -367.292969 344.347656 -366.6875 344.09375 -366.105469 C 343.84375 -365.519531 343.535156 -364.964844 343.171875 -364.441406 C 342.808594 -363.917969 342.398438 -363.433594 341.941406 -362.992188 C 341.484375 -362.550781 340.988281 -362.15625 340.453125 -361.808594 C 339.917969 -361.464844 339.351562 -361.175781 338.761719 -360.941406 C 338.167969 -360.707031 337.558594 -360.535156 336.933594 -360.417969 C 336.304688 -360.304688 335.675781 -360.253906 335.039062 -360.265625 C 334.402344 -360.273438 333.773438 -360.347656 333.148438 -360.480469 C 332.527344 -360.617188 331.921875 -360.808594 331.339844 -361.0625 C 330.753906 -361.316406 330.199219 -361.625 329.675781 -361.984375 C 329.152344 -362.347656 328.671875 -362.757812 328.226562 -363.214844 C 327.785156 -363.671875 327.390625 -364.167969 327.042969 -364.703125 C 326.699219 -365.238281 326.410156 -365.800781 326.175781 -366.394531 C 325.941406 -366.988281 325.765625 -367.597656 325.652344 -368.222656 C 320.894531 -388.847656 316.386719 -407.253906 311.988281 -424.507812 C 311.828125 -425.128906 311.730469 -425.757812 311.695312 -426.398438 C 311.660156 -427.039062 311.6875 -427.675781 311.78125 -428.308594 C 311.871094 -428.945312 312.023438 -429.5625 312.234375 -430.167969 C 312.449219 -430.773438 312.71875 -431.351562 313.046875 -431.902344 C 313.371094 -432.453125 313.75 -432.96875 314.179688 -433.445312 C 314.605469 -433.921875 315.078125 -434.351562 315.589844 -434.738281 C 316.105469 -435.121094 316.648438 -435.449219 317.226562 -435.726562 C 317.804688 -436.003906 318.40625 -436.222656 319.027344 -436.378906 C 319.648438 -436.539062 320.277344 -436.632812 320.917969 -436.667969 C 321.558594 -436.703125 322.195312 -436.671875 322.832031 -436.582031 C 323.464844 -436.492188 324.085938 -436.335938 324.6875 -436.125 C 325.292969 -435.910156 325.871094 -435.640625 326.421875 -435.3125 C 326.972656 -434.984375 327.484375 -434.605469 327.960938 -434.175781 C 328.4375 -433.75 328.867188 -433.277344 329.253906 -432.761719 C 329.636719 -432.25 329.964844 -431.703125 330.242188 -431.125 C 330.515625 -430.546875 330.734375 -429.945312 330.890625 -429.324219 C 335.359375 -411.9375 339.886719 -393.382812 344.675781 -372.519531 Z M 315.601562 -484.261719 C 315.734375 -483.636719 315.804688 -483.007812 315.8125 -482.371094 C 315.820312 -481.730469 315.765625 -481.097656 315.652344 -480.472656 C 315.535156 -479.84375 315.359375 -479.234375 315.125 -478.640625 C 314.886719 -478.046875 314.59375 -477.484375 314.25 -476.949219 C 313.902344 -476.414062 313.503906 -475.917969 313.058594 -475.460938 C 312.613281 -475.003906 312.128906 -474.59375 311.605469 -474.230469 C 311.078125 -473.871094 310.523438 -473.5625 309.9375 -473.3125 C 309.351562 -473.058594 308.746094 -472.867188 308.121094 -472.734375 C 307.496094 -472.601562 306.867188 -472.527344 306.226562 -472.519531 C 305.589844 -472.511719 304.957031 -472.566406 304.328125 -472.679688 C 303.703125 -472.796875 303.09375 -472.972656 302.5 -473.210938 C 301.90625 -473.445312 301.34375 -473.738281 300.808594 -474.085938 C 300.273438 -474.433594 299.773438 -474.828125 299.316406 -475.273438 C 298.859375 -475.71875 298.453125 -476.203125 298.089844 -476.730469 C 297.726562 -477.253906 297.421875 -477.808594 297.167969 -478.398438 C 296.917969 -478.984375 296.722656 -479.585938 296.589844 -480.210938 C 290.871094 -499.628906 285.03125 -517.757812 278.914062 -535.070312 C 278.703125 -535.667969 278.554688 -536.285156 278.464844 -536.914062 C 278.375 -537.542969 278.347656 -538.175781 278.382812 -538.8125 C 278.417969 -539.445312 278.515625 -540.074219 278.671875 -540.6875 C 278.832031 -541.304688 279.046875 -541.898438 279.320312 -542.472656 C 279.597656 -543.046875 279.925781 -543.585938 280.308594 -544.097656 C 280.6875 -544.605469 281.117188 -545.070312 281.589844 -545.496094 C 282.0625 -545.921875 282.574219 -546.296875 283.121094 -546.621094 C 283.667969 -546.945312 284.242188 -547.210938 284.839844 -547.425781 C 285.441406 -547.636719 286.054688 -547.785156 286.6875 -547.875 C 287.316406 -547.96875 287.949219 -547.996094 288.582031 -547.960938 C 289.21875 -547.929688 289.84375 -547.832031 290.460938 -547.675781 C 291.078125 -547.519531 291.671875 -547.300781 292.246094 -547.027344 C 292.820312 -546.753906 293.363281 -546.425781 293.871094 -546.046875 C 294.378906 -545.664062 294.847656 -545.238281 295.273438 -544.765625 C 295.699219 -544.292969 296.074219 -543.78125 296.398438 -543.234375 C 296.726562 -542.691406 296.992188 -542.117188 297.207031 -541.515625 C 303.492188 -523.691406 309.351562 -505.417969 315.207031 -485.726562 Z M 276.847656 -593.808594 C 276.925781 -593.230469 276.953125 -592.652344 276.929688 -592.070312 C 276.90625 -591.488281 276.828125 -590.914062 276.699219 -590.34375 C 276.570312 -589.777344 276.394531 -589.222656 276.164062 -588.6875 C 275.9375 -588.148438 275.664062 -587.640625 275.34375 -587.152344 C 275.023438 -586.664062 274.660156 -586.210938 274.257812 -585.789062 C 273.855469 -585.367188 273.421875 -584.984375 272.949219 -584.640625 C 272.476562 -584.300781 271.980469 -584 271.453125 -583.75 C 270.929688 -583.496094 270.386719 -583.289062 269.824219 -583.136719 C 269.261719 -582.980469 268.691406 -582.878906 268.109375 -582.824219 C 267.53125 -582.773438 266.949219 -582.773438 266.371094 -582.828125 C 265.789062 -582.878906 265.21875 -582.984375 264.65625 -583.140625 C 264.09375 -583.296875 263.550781 -583.5 263.027344 -583.753906 C 262.503906 -584.007812 262.003906 -584.308594 261.535156 -584.652344 C 261.0625 -584.996094 260.625 -585.378906 260.226562 -585.800781 C 259.824219 -586.222656 259.464844 -586.675781 259.144531 -587.164062 C 258.824219 -587.652344 258.550781 -588.164062 258.324219 -588.699219 C 251.042969 -606.292969 242.519531 -623.667969 233.636719 -640.453125 C 233.339844 -641.015625 233.101562 -641.601562 232.917969 -642.214844 C 232.738281 -642.824219 232.617188 -643.445312 232.558594 -644.078125 C 232.503906 -644.714844 232.507812 -645.347656 232.574219 -645.980469 C 232.640625 -646.613281 232.765625 -647.234375 232.957031 -647.84375 C 233.144531 -648.449219 233.390625 -649.035156 233.695312 -649.59375 C 233.996094 -650.152344 234.351562 -650.675781 234.757812 -651.167969 C 235.167969 -651.65625 235.617188 -652.101562 236.113281 -652.503906 C 236.605469 -652.902344 237.136719 -653.25 237.699219 -653.546875 C 238.261719 -653.84375 238.847656 -654.082031 239.460938 -654.265625 C 240.070312 -654.445312 240.691406 -654.566406 241.324219 -654.625 C 241.960938 -654.679688 242.59375 -654.675781 243.226562 -654.609375 C 243.859375 -654.542969 244.480469 -654.417969 245.089844 -654.230469 C 245.695312 -654.039062 246.28125 -653.792969 246.839844 -653.488281 C 247.398438 -653.1875 247.921875 -652.832031 248.414062 -652.425781 C 248.902344 -652.015625 249.347656 -651.566406 249.75 -651.070312 C 250.148438 -650.578125 250.496094 -650.046875 250.792969 -649.484375 C 259.886719 -632.238281 268.425781 -614.375 276.164062 -596.308594 C 276.523438 -595.476562 276.789062 -594.617188 276.953125 -593.726562 Z M 222.449219 -696.488281 C 222.523438 -695.945312 222.550781 -695.402344 222.53125 -694.855469 C 222.511719 -694.308594 222.449219 -693.765625 222.335938 -693.230469 C 222.226562 -692.695312 222.074219 -692.175781 221.875 -691.664062 C 221.675781 -691.15625 221.4375 -690.664062 221.152344 -690.195312 C 220.871094 -689.726562 220.554688 -689.285156 220.199219 -688.871094 C 219.839844 -688.457031 219.453125 -688.074219 219.03125 -687.726562 C 218.609375 -687.378906 218.164062 -687.066406 217.691406 -686.792969 C 217.21875 -686.519531 216.722656 -686.289062 216.210938 -686.097656 C 215.699219 -685.90625 215.171875 -685.761719 214.636719 -685.660156 C 214.097656 -685.5625 213.554688 -685.503906 213.011719 -685.496094 C 212.464844 -685.488281 211.917969 -685.523438 211.378906 -685.605469 C 210.839844 -685.691406 210.308594 -685.816406 209.789062 -685.988281 C 209.269531 -686.160156 208.769531 -686.375 208.289062 -686.632812 C 207.804688 -686.890625 207.347656 -687.1875 206.914062 -687.523438 C 206.484375 -687.855469 206.082031 -688.226562 205.710938 -688.628906 C 205.34375 -689.03125 205.007812 -689.460938 204.710938 -689.917969 C 194.234375 -706.195312 183.0625 -721.839844 171.484375 -736.503906 C 171.035156 -736.996094 170.640625 -737.53125 170.300781 -738.105469 C 169.960938 -738.683594 169.683594 -739.285156 169.472656 -739.917969 C 169.257812 -740.550781 169.109375 -741.199219 169.027344 -741.863281 C 168.949219 -742.527344 168.9375 -743.191406 168.996094 -743.859375 C 169.050781 -744.523438 169.175781 -745.175781 169.371094 -745.816406 C 169.5625 -746.457031 169.816406 -747.070312 170.136719 -747.65625 C 170.457031 -748.242188 170.832031 -748.792969 171.265625 -749.300781 C 171.695312 -749.808594 172.175781 -750.269531 172.703125 -750.679688 C 173.230469 -751.089844 173.796875 -751.441406 174.398438 -751.734375 C 174.996094 -752.027344 175.621094 -752.257812 176.269531 -752.421875 C 176.917969 -752.585938 177.574219 -752.679688 178.242188 -752.707031 C 178.910156 -752.738281 179.574219 -752.695312 180.230469 -752.585938 C 180.890625 -752.476562 181.53125 -752.304688 182.15625 -752.0625 C 182.777344 -751.820312 183.371094 -751.515625 183.929688 -751.152344 C 184.492188 -750.789062 185.007812 -750.371094 185.480469 -749.898438 C 185.957031 -749.429688 186.375 -748.914062 186.742188 -748.355469 C 198.585938 -733.195312 210.21875 -717.023438 221.007812 -700.25 C 221.816406 -699.085938 222.332031 -697.804688 222.558594 -696.402344 Z M 150.417969 -787.523438 C 150.554688 -786.511719 150.535156 -785.503906 150.355469 -784.5 C 150.175781 -783.496094 149.847656 -782.542969 149.367188 -781.640625 C 148.886719 -780.738281 148.277344 -779.933594 147.542969 -779.226562 C 146.808594 -778.519531 145.980469 -777.941406 145.0625 -777.492188 C 144.144531 -777.042969 143.179688 -776.75 142.167969 -776.605469 C 141.15625 -776.464844 140.148438 -776.480469 139.144531 -776.65625 C 138.136719 -776.835938 137.183594 -777.160156 136.28125 -777.640625 C 135.378906 -778.117188 134.574219 -778.722656 133.859375 -779.457031 C 120.59375 -793.066406 106.550781 -805.828125 91.738281 -817.738281 C 91.210938 -818.125 90.730469 -818.5625 90.292969 -819.046875 C 89.855469 -819.53125 89.472656 -820.058594 89.140625 -820.621094 C 88.808594 -821.183594 88.535156 -821.773438 88.324219 -822.390625 C 88.113281 -823.007812 87.964844 -823.640625 87.878906 -824.289062 C 87.796875 -824.9375 87.777344 -825.585938 87.824219 -826.238281 C 87.871094 -826.890625 87.984375 -827.53125 88.160156 -828.160156 C 88.335938 -828.789062 88.574219 -829.390625 88.875 -829.972656 C 89.171875 -830.554688 89.527344 -831.097656 89.933594 -831.609375 C 90.34375 -832.117188 90.800781 -832.582031 91.304688 -832.996094 C 91.804688 -833.414062 92.34375 -833.777344 92.921875 -834.085938 C 93.496094 -834.394531 94.097656 -834.640625 94.722656 -834.828125 C 95.351562 -835.011719 95.988281 -835.132812 96.640625 -835.191406 C 97.289062 -835.25 97.941406 -835.242188 98.589844 -835.167969 C 99.238281 -835.09375 99.875 -834.953125 100.496094 -834.75 C 101.113281 -834.550781 101.710938 -834.285156 102.277344 -833.964844 C 102.84375 -833.640625 103.375 -833.265625 103.867188 -832.835938 C 119.339844 -820.390625 134.011719 -807.0625 147.882812 -792.851562 C 149.355469 -791.335938 150.234375 -789.535156 150.527344 -787.441406 Z M 59.714844 -859.789062 C 59.832031 -858.890625 59.824219 -857.992188 59.691406 -857.09375 C 59.554688 -856.195312 59.300781 -855.332031 58.921875 -854.503906 C 58.542969 -853.679688 58.0625 -852.921875 57.46875 -852.230469 C 56.878906 -851.539062 56.207031 -850.945312 55.449219 -850.445312 C 54.691406 -849.945312 53.878906 -849.558594 53.011719 -849.285156 C 52.144531 -849.011719 51.257812 -848.863281 50.347656 -848.84375 C 49.441406 -848.820312 48.546875 -848.921875 47.667969 -849.152344 C 46.789062 -849.378906 45.957031 -849.722656 45.175781 -850.1875 C 28.945312 -859.863281 12.0625 -868.230469 -5.472656 -875.28125 C -6.0625 -875.523438 -6.625 -875.820312 -7.15625 -876.167969 C -7.691406 -876.519531 -8.183594 -876.921875 -8.640625 -877.371094 C -9.09375 -877.820312 -9.5 -878.308594 -9.855469 -878.835938 C -10.214844 -879.363281 -10.519531 -879.921875 -10.765625 -880.511719 C -11.015625 -881.101562 -11.203125 -881.707031 -11.332031 -882.332031 C -11.460938 -882.957031 -11.523438 -883.589844 -11.527344 -884.226562 C -11.535156 -884.867188 -11.476562 -885.5 -11.355469 -886.125 C -11.234375 -886.753906 -11.054688 -887.363281 -10.8125 -887.953125 C -10.570312 -888.546875 -10.277344 -889.109375 -9.925781 -889.640625 C -9.574219 -890.171875 -9.171875 -890.667969 -8.722656 -891.121094 C -8.273438 -891.574219 -7.785156 -891.980469 -7.257812 -892.339844 C -6.730469 -892.699219 -6.171875 -893 -5.582031 -893.25 C -4.992188 -893.496094 -4.386719 -893.683594 -3.761719 -893.8125 C -3.136719 -893.941406 -2.503906 -894.007812 -1.867188 -894.011719 C -1.226562 -894.015625 -0.59375 -893.957031 0.03125 -893.835938 C 0.660156 -893.714844 1.269531 -893.535156 1.859375 -893.296875 C 20.339844 -885.875 38.132812 -877.0625 55.234375 -866.859375 C 56.507812 -866.082031 57.546875 -865.070312 58.355469 -863.8125 C 59.160156 -862.558594 59.648438 -861.1875 59.824219 -859.707031 Z M -47.8125 -902.582031 C -47.757812 -902.195312 -47.726562 -901.804688 -47.722656 -901.414062 C -47.714844 -901.027344 -47.730469 -900.636719 -47.769531 -900.246094 C -47.8125 -899.859375 -47.875 -899.476562 -47.960938 -899.09375 C -48.046875 -898.714844 -48.15625 -898.339844 -48.289062 -897.972656 C -48.421875 -897.605469 -48.574219 -897.246094 -48.75 -896.898438 C -48.925781 -896.546875 -49.121094 -896.210938 -49.335938 -895.886719 C -49.550781 -895.558594 -49.785156 -895.25 -50.039062 -894.953125 C -50.292969 -894.65625 -50.566406 -894.375 -50.851562 -894.109375 C -51.140625 -893.847656 -51.441406 -893.601562 -51.757812 -893.371094 C -52.078125 -893.144531 -52.40625 -892.9375 -52.75 -892.75 C -53.089844 -892.5625 -53.441406 -892.394531 -53.804688 -892.25 C -54.167969 -892.105469 -54.539062 -891.980469 -54.914062 -891.882812 C -55.292969 -891.78125 -55.675781 -891.703125 -56.0625 -891.648438 C -56.449219 -891.59375 -56.835938 -891.5625 -57.226562 -891.554688 C -57.617188 -891.546875 -58.007812 -891.566406 -58.394531 -891.605469 C -58.78125 -891.644531 -59.167969 -891.707031 -59.546875 -891.792969 C -62.976562 -892.550781 -66.445312 -893.25 -69.902344 -893.859375 C -70.527344 -893.96875 -71.136719 -894.144531 -71.730469 -894.375 C -72.324219 -894.609375 -72.886719 -894.898438 -73.421875 -895.242188 C -73.957031 -895.585938 -74.457031 -895.976562 -74.914062 -896.417969 C -75.371094 -896.859375 -75.785156 -897.34375 -76.148438 -897.863281 C -76.511719 -898.386719 -76.820312 -898.941406 -77.074219 -899.523438 C -77.328125 -900.105469 -77.523438 -900.710938 -77.660156 -901.332031 C -77.796875 -901.953125 -77.871094 -902.582031 -77.882812 -903.21875 C -77.894531 -903.855469 -77.84375 -904.488281 -77.730469 -905.113281 C -77.621094 -905.738281 -77.449219 -906.347656 -77.214844 -906.941406 C -76.984375 -907.535156 -76.695312 -908.097656 -76.351562 -908.636719 C -76.007812 -909.171875 -75.617188 -909.667969 -75.175781 -910.128906 C -74.734375 -910.585938 -74.253906 -910.996094 -73.730469 -911.359375 C -73.207031 -911.726562 -72.65625 -912.035156 -72.074219 -912.289062 C -71.488281 -912.546875 -70.886719 -912.742188 -70.265625 -912.878906 C -69.644531 -913.015625 -69.015625 -913.089844 -68.378906 -913.101562 C -67.742188 -913.113281 -67.109375 -913.066406 -66.484375 -912.953125 C -62.773438 -912.285156 -59.105469 -911.558594 -55.480469 -910.78125 C -54.476562 -910.589844 -53.53125 -910.246094 -52.636719 -909.753906 C -51.742188 -909.261719 -50.949219 -908.640625 -50.25 -907.898438 C -49.550781 -907.15625 -48.984375 -906.324219 -48.550781 -905.398438 C -48.117188 -904.476562 -47.832031 -903.511719 -47.703125 -902.5 Z M -47.8125 -902.582031 " fill-opacity="1" fill-rule="nonzero"/></g></g></g></svg>