<svg xmlns="http://www.w3.org/2000/svg" xmlns:xlink="http://www.w3.org/1999/xlink" width="1920" zoomAndPan="magnify" viewBox="0 0 1440 1012.49997" height="1350" preserveAspectRatio="xMidYMid meet" version="1.0"><defs><clipPath id="683a2254ab"><path d="M 1 450.527344 L 19 450.527344 L 19 469 L 1 469 Z M 1 450.527344 " clip-rule="nonzero"/></clipPath><clipPath id="0bb45ff430"><path d="M 39 451 L 1398 451 L 1398 561.472656 L 39 561.472656 Z M 39 451 " clip-rule="nonzero"/></clipPath><clipPath id="fa2fec7767"><path d="M 1421 544 L 1439 544 L 1439 561.472656 L 1421 561.472656 Z M 1421 544 " clip-rule="nonzero"/></clipPath></defs><g clip-path="url(#683a2254ab)"><path fill="#f56f10" d="M 9.796875 468.359375 C 9.234375 468.359375 8.671875 468.300781 8.109375 468.203125 C 7.546875 468.089844 7.003906 467.914062 6.460938 467.699219 C 5.933594 467.488281 5.429688 467.214844 4.964844 466.886719 C 4.480469 466.574219 4.035156 466.207031 3.628906 465.800781 C 2.019531 464.191406 1.085938 461.941406 1.085938 459.632812 C 1.085938 457.339844 2.019531 455.089844 3.628906 453.460938 C 5.664062 451.445312 8.691406 450.515625 11.503906 451.078125 C 12.066406 451.191406 12.628906 451.347656 13.152344 451.582031 C 13.675781 451.792969 14.179688 452.066406 14.644531 452.375 C 15.132812 452.6875 15.578125 453.054688 15.984375 453.460938 C 17.613281 455.089844 18.542969 457.339844 18.542969 459.628906 C 18.542969 461.9375 17.613281 464.1875 15.984375 465.796875 C 14.355469 467.425781 12.105469 468.359375 9.796875 468.359375 Z M 9.796875 468.359375 " fill-opacity="1" fill-rule="nonzero"/></g><g clip-path="url(#0bb45ff430)"><path fill="#f56f10" d="M 209.359375 552.945312 C 209.1875 548.113281 212.96875 544.082031 217.78125 543.925781 C 222.609375 543.769531 226.644531 547.53125 226.796875 552.363281 C 226.972656 557.171875 223.191406 561.207031 218.378906 561.363281 C 218.285156 561.382812 218.1875 561.382812 218.089844 561.382812 C 213.394531 561.382812 209.515625 557.65625 209.359375 552.945312 Z M 1010.457031 560.898438 C 1005.667969 560.46875 1002.097656 556.242188 1002.503906 551.429688 C 1002.933594 546.640625 1007.15625 543.089844 1011.949219 543.5 C 1016.757812 543.90625 1020.328125 548.132812 1019.902344 552.945312 C 1019.515625 557.484375 1015.714844 560.917969 1011.214844 560.917969 C 1010.980469 560.917969 1010.710938 560.917969 1010.457031 560.898438 Z M 625.523438 552.847656 C 625 548.054688 628.492188 543.769531 633.28125 543.265625 C 638.074219 542.761719 642.378906 546.234375 642.882812 551.023438 C 643.386719 555.816406 639.894531 560.121094 635.105469 560.625 C 634.796875 560.644531 634.503906 560.664062 634.191406 560.664062 C 629.769531 560.664062 625.988281 557.328125 625.523438 552.847656 Z M 593.730469 559.519531 C 588.980469 558.742188 585.761719 554.242188 586.535156 549.492188 C 587.332031 544.71875 591.832031 541.519531 596.585938 542.296875 C 601.335938 543.089844 604.554688 547.570312 603.761719 552.34375 C 603.0625 556.609375 599.355469 559.636719 595.167969 559.636719 C 594.703125 559.636719 594.21875 559.597656 593.730469 559.519531 Z M 1041.644531 552.050781 C 1040.773438 547.320312 1043.875 542.761719 1048.628906 541.871094 C 1053.359375 540.976562 1057.917969 544.101562 1058.8125 548.851562 C 1059.703125 553.585938 1056.5625 558.140625 1051.828125 559.035156 C 1051.304688 559.132812 1050.761719 559.171875 1050.21875 559.171875 C 1046.105469 559.171875 1042.441406 556.242188 1041.644531 552.050781 Z M 177.050781 557.25 C 172.394531 556.046875 169.5625 551.296875 170.765625 546.621094 C 171.945312 541.964844 176.699219 539.132812 181.375 540.316406 C 186.050781 541.519531 188.863281 546.273438 187.679688 550.945312 C 186.667969 554.882812 183.121094 557.523438 179.222656 557.523438 C 178.503906 557.523438 177.789062 557.425781 177.050781 557.25 Z M 1386.136719 554.804688 C 1381.5625 553.292969 1379.097656 548.347656 1380.609375 543.789062 C 1382.121094 539.210938 1387.066406 536.730469 1391.644531 538.242188 C 1396.222656 539.753906 1398.6875 544.699219 1397.171875 549.277344 C 1395.96875 552.945312 1392.558594 555.253906 1388.890625 555.253906 C 1387.976562 555.253906 1387.046875 555.117188 1386.136719 554.804688 Z M 248.230469 548.597656 C 246.601562 544.0625 248.949219 539.058594 253.488281 537.425781 C 258.027344 535.796875 263.03125 538.164062 264.660156 542.703125 C 266.289062 547.242188 263.921875 552.246094 259.382812 553.875 C 258.414062 554.222656 257.425781 554.378906 256.433594 554.378906 C 252.867188 554.378906 249.511719 552.167969 248.230469 548.597656 Z M 969.878906 550.792969 L 969.878906 550.8125 C 965.476562 548.871094 963.457031 543.710938 965.398438 539.308594 C 967.320312 534.886719 972.476562 532.871094 976.878906 534.808594 C 981.304688 536.75 983.320312 541.886719 981.378906 546.3125 C 979.945312 549.589844 976.746094 551.527344 973.390625 551.527344 C 972.207031 551.527344 971.023438 551.296875 969.878906 550.792969 Z M 663.890625 545.398438 C 661.851562 541.035156 663.753906 535.835938 668.117188 533.800781 C 672.480469 531.765625 677.679688 533.644531 679.714844 538.007812 C 681.753906 542.375 679.851562 547.570312 675.503906 549.609375 C 674.304688 550.171875 673.042969 550.441406 671.800781 550.441406 C 668.523438 550.441406 665.378906 548.582031 663.890625 545.398438 Z M 554.105469 545.863281 C 549.898438 543.554688 548.34375 538.242188 550.671875 534.015625 C 553 529.804688 558.296875 528.253906 562.523438 530.582031 C 566.753906 532.890625 568.285156 538.203125 565.972656 542.433594 C 564.382812 545.320312 561.398438 546.949219 558.3125 546.949219 C 556.878906 546.949219 555.445312 546.601562 554.105469 545.863281 Z M 1079.214844 541.289062 C 1076.808594 537.117188 1078.222656 531.785156 1082.394531 529.359375 C 1086.566406 526.953125 1091.917969 528.371094 1094.324219 532.539062 C 1096.726562 536.710938 1095.3125 542.0625 1091.140625 544.46875 C 1089.765625 545.261719 1088.25 545.652344 1086.777344 545.652344 C 1083.769531 545.652344 1080.824219 544.082031 1079.214844 541.289062 Z M 138.796875 540.105469 C 134.785156 537.445312 133.675781 532.035156 136.332031 528.019531 C 138.992188 523.984375 144.402344 522.898438 148.4375 525.558594 L 148.414062 525.558594 C 152.449219 528.195312 153.554688 533.625 150.898438 537.640625 C 149.210938 540.183594 146.4375 541.558594 143.605469 541.558594 C 141.953125 541.558594 140.289062 541.09375 138.792969 540.105469 Z M 1349.242188 535.234375 C 1345.363281 532.363281 1344.550781 526.914062 1347.421875 523.035156 C 1350.273438 519.15625 1355.742188 518.339844 1359.621094 521.210938 C 1363.5 524.082031 1364.3125 529.535156 1361.445312 533.414062 C 1359.738281 535.71875 1357.097656 536.941406 1354.421875 536.941406 C 1352.617188 536.941406 1350.796875 536.398438 1349.242188 535.234375 Z M 283.566406 531.898438 C 280.636719 528.078125 281.375 522.609375 285.199219 519.679688 C 289.019531 516.75 294.507812 517.46875 297.4375 521.308594 C 300.363281 525.128906 299.628906 530.621094 295.808594 533.546875 C 294.214844 534.75 292.355469 535.332031 290.515625 535.332031 C 287.875 535.332031 285.296875 534.148438 283.570312 531.898438 Z M 934.886719 528.523438 C 931.164062 525.460938 930.640625 519.953125 933.722656 516.246094 C 936.785156 512.523438 942.292969 512 946 515.082031 C 949.722656 518.148438 950.230469 523.65625 947.164062 527.359375 C 945.4375 529.457031 942.957031 530.523438 940.433594 530.523438 C 938.472656 530.523438 936.515625 529.882812 934.886719 528.523438 Z M 697.691406 525.730469 C 694.585938 522.046875 695.054688 516.539062 698.71875 513.433594 C 702.402344 510.3125 707.914062 510.777344 711.019531 514.460938 C 714.136719 518.128906 713.675781 523.636719 709.988281 526.757812 C 708.359375 528.136719 706.363281 528.816406 704.363281 528.816406 C 701.882812 528.816406 699.417969 527.769531 697.695312 525.730469 Z M 520.992188 521.5625 C 517.386719 518.359375 517.074219 512.851562 520.257812 509.246094 C 523.476562 505.636719 528.984375 505.308594 532.589844 508.527344 C 536.179688 511.707031 536.507812 517.234375 533.308594 520.84375 C 531.582031 522.785156 529.199219 523.773438 526.792969 523.773438 C 524.738281 523.773438 522.660156 523.035156 520.992188 521.5625 Z M 1111.46875 519.097656 C 1108.25 515.511719 1108.539062 510 1112.128906 506.78125 C 1115.714844 503.542969 1121.222656 503.851562 1124.464844 507.421875 C 1127.679688 511.011719 1127.371094 516.539062 1123.800781 519.757812 C 1122.136719 521.25 1120.039062 521.988281 1117.964844 521.988281 C 1115.578125 521.988281 1113.191406 521.019531 1111.464844 519.097656 Z M 107.375 514.464844 C 103.808594 511.207031 103.574219 505.699219 106.835938 502.128906 C 110.09375 498.578125 115.601562 498.347656 119.167969 501.605469 C 122.71875 504.863281 122.953125 510.371094 119.710938 513.941406 C 117.988281 515.804688 115.621094 516.773438 113.273438 516.773438 C 111.160156 516.773438 109.046875 515.996094 107.375 514.464844 Z M 1318.855469 509.054688 C 1315.285156 505.792969 1315.03125 500.285156 1318.292969 496.71875 C 1321.53125 493.167969 1327.058594 492.914062 1330.609375 496.15625 C 1334.175781 499.414062 1334.429688 504.921875 1331.171875 508.492188 C 1329.464844 510.371094 1327.097656 511.339844 1324.734375 511.339844 C 1322.636719 511.339844 1320.523438 510.585938 1318.855469 509.054688 Z M 313.578125 506.667969 C 310.339844 503.097656 310.609375 497.570312 314.179688 494.332031 C 317.746094 491.09375 323.277344 491.363281 326.515625 494.933594 C 329.734375 498.5 329.464844 504.03125 325.894531 507.269531 L 325.914062 507.269531 C 324.226562 508.78125 322.132812 509.539062 320.039062 509.539062 C 317.671875 509.539062 315.304688 508.566406 313.578125 506.667969 Z M 905.429688 502.226562 C 901.800781 499.042969 901.453125 493.535156 904.613281 489.910156 C 907.796875 486.28125 913.320312 485.914062 916.933594 489.09375 C 920.558594 492.277344 920.925781 497.785156 917.746094 501.410156 C 916.019531 503.390625 913.613281 504.398438 911.191406 504.398438 C 909.132812 504.398438 907.097656 503.679688 905.429688 502.226562 Z M 726.984375 499.605469 C 723.84375 495.960938 724.25 490.453125 727.898438 487.289062 C 731.542969 484.148438 737.054688 484.554688 740.214844 488.222656 C 743.355469 491.867188 742.949219 497.375 739.285156 500.519531 C 737.65625 501.953125 735.617188 502.632812 733.601562 502.632812 C 731.15625 502.632812 728.710938 501.605469 726.988281 499.605469 Z M 492.003906 495.765625 C 488.242188 492.742188 487.660156 487.234375 490.683594 483.488281 C 493.726562 479.746094 499.21875 479.164062 502.960938 482.191406 C 506.707031 485.214844 507.304688 490.722656 504.261719 494.46875 C 502.535156 496.601562 500.015625 497.707031 497.472656 497.707031 C 495.554688 497.707031 493.613281 497.066406 492.003906 495.765625 Z M 1140.527344 492.722656 C 1137.539062 488.921875 1138.199219 483.429688 1141.980469 480.464844 C 1145.785156 477.476562 1151.273438 478.136719 1154.238281 481.917969 C 1157.226562 485.699219 1156.566406 491.1875 1152.785156 494.175781 C 1151.175781 495.4375 1149.273438 496.039062 1147.394531 496.039062 C 1144.792969 496.039062 1142.234375 494.894531 1140.527344 492.722656 Z M 78.304688 489.734375 C 74.382812 486.921875 73.492188 481.472656 76.285156 477.554688 C 79.097656 473.636719 84.550781 472.742188 88.464844 475.535156 C 92.386719 478.347656 93.296875 483.800781 90.484375 487.71875 C 88.777344 490.101562 86.097656 491.363281 83.386719 491.363281 C 81.621094 491.363281 79.855469 490.839844 78.304688 489.734375 Z M 1289.449219 485.527344 C 1285.375 482.945312 1284.175781 477.554688 1286.753906 473.480469 C 1289.332031 469.40625 1294.722656 468.203125 1298.796875 470.785156 C 1302.871094 473.363281 1304.074219 478.757812 1301.496094 482.828125 C 1299.828125 485.449219 1297.015625 486.882812 1294.125 486.882812 C 1292.515625 486.882812 1290.90625 486.4375 1289.449219 485.527344 Z M 343.46875 481.257812 C 340.984375 477.148438 342.300781 471.773438 346.414062 469.273438 C 350.546875 466.789062 355.902344 468.089844 358.402344 472.21875 C 360.902344 476.351562 359.585938 481.703125 355.453125 484.207031 C 354.039062 485.058594 352.484375 485.46875 350.953125 485.46875 C 347.988281 485.46875 345.117188 483.972656 343.46875 481.257812 Z M 875.285156 480.695312 C 871.015625 478.464844 869.367188 473.191406 871.601562 468.921875 C 873.828125 464.636719 879.105469 462.988281 883.371094 465.21875 C 887.640625 467.449219 889.289062 472.722656 887.058594 476.992188 C 885.507812 479.976562 882.460938 481.683594 879.320312 481.683594 C 877.960938 481.683594 876.585938 481.375 875.285156 480.695312 Z M 757.980469 475.613281 C 755.84375 471.289062 757.609375 466.050781 761.9375 463.9375 C 766.257812 461.785156 771.5 463.570312 773.628906 467.894531 C 775.765625 472.21875 773.980469 477.4375 769.652344 479.570312 C 768.414062 480.191406 767.113281 480.484375 765.816406 480.484375 C 762.59375 480.484375 759.492188 478.699219 757.980469 475.613281 Z M 460.851562 476.660156 C 456.390625 474.820312 454.277344 469.71875 456.101562 465.257812 C 457.941406 460.796875 463.042969 458.679688 467.484375 460.503906 C 471.945312 462.347656 474.078125 467.449219 472.238281 471.910156 C 470.859375 475.285156 467.601562 477.320312 464.167969 477.320312 C 463.066406 477.320312 461.941406 477.109375 460.851562 476.660156 Z M 1172.9375 470.726562 C 1171.195312 466.226562 1173.445312 461.183594 1177.941406 459.457031 C 1182.441406 457.730469 1187.484375 459.960938 1189.210938 464.460938 C 1190.957031 468.960938 1188.707031 474.023438 1184.207031 475.75 C 1183.179688 476.136719 1182.113281 476.332031 1181.066406 476.332031 C 1177.574219 476.332031 1174.257812 474.199219 1172.941406 470.726562 Z M 45.988281 473.402344 C 41.390625 471.988281 38.792969 467.117188 40.207031 462.503906 C 41.625 457.90625 46.492188 455.308594 51.109375 456.722656 C 55.726562 458.136719 58.304688 463.007812 56.890625 467.625 C 55.746094 471.386719 52.292969 473.792969 48.566406 473.792969 C 47.714844 473.792969 46.839844 473.675781 45.988281 473.402344 Z M 1256.242188 471.484375 C 1251.527344 470.398438 1248.617188 465.703125 1249.707031 461.007812 C 1250.792969 456.316406 1255.484375 453.386719 1260.179688 454.492188 C 1264.871094 455.578125 1267.800781 460.273438 1266.695312 464.964844 C 1265.765625 469 1262.175781 471.714844 1258.21875 471.714844 C 1257.558594 471.714844 1256.898438 471.636719 1256.238281 471.484375 Z M 378.628906 464.191406 C 377.640625 459.476562 380.667969 454.859375 385.378906 453.871094 C 390.109375 452.882812 394.726562 455.90625 395.714844 460.621094 C 396.707031 465.355469 393.679688 469.96875 388.949219 470.960938 C 388.34375 471.074219 387.746094 471.152344 387.164062 471.152344 C 383.109375 471.152344 379.480469 468.320312 378.628906 464.191406 Z M 840.972656 469.71875 C 836.203125 469.019531 832.886719 464.597656 833.582031 459.824219 C 834.28125 455.054688 838.703125 451.738281 843.476562 452.4375 C 848.246094 453.132812 851.542969 457.554688 850.863281 462.328125 C 850.226562 466.671875 846.5 469.816406 842.234375 469.816406 C 841.828125 469.816406 841.398438 469.777344 840.976562 469.71875 Z M 794.519531 461.804688 C 793.917969 457.011719 797.308594 452.648438 802.101562 452.066406 C 806.875 451.464844 811.238281 454.859375 811.839844 459.652344 C 812.441406 464.421875 809.027344 468.785156 804.257812 469.386719 C 803.890625 469.425781 803.519531 469.445312 803.171875 469.445312 C 798.824219 469.445312 795.0625 466.207031 794.519531 461.804688 Z M 425.550781 468.691406 C 420.742188 468.359375 417.113281 464.210938 417.441406 459.398438 C 417.769531 454.589844 421.941406 450.960938 426.75 451.292969 C 431.5625 451.601562 435.191406 455.773438 434.859375 460.582031 C 434.550781 465.199219 430.707031 468.710938 426.152344 468.710938 C 425.957031 468.710938 425.765625 468.710938 425.550781 468.691406 Z M 1210.5625 460.273438 C 1210.332031 455.460938 1214.035156 451.351562 1218.847656 451.117188 C 1223.65625 450.863281 1227.75 454.570312 1228.003906 459.398438 C 1228.234375 464.210938 1224.53125 468.300781 1219.71875 468.554688 L 1219.273438 468.554688 C 1214.660156 468.554688 1210.796875 464.925781 1210.566406 460.273438 Z M 1210.5625 460.273438 " fill-opacity="1" fill-rule="nonzero"/></g><g clip-path="url(#fa2fec7767)"><path fill="#f56f10" d="M 1430.089844 561.460938 C 1427.78125 561.460938 1425.550781 560.53125 1423.921875 558.902344 C 1423.511719 558.511719 1423.144531 558.066406 1422.832031 557.582031 C 1422.523438 557.117188 1422.25 556.613281 1422.039062 556.070312 C 1421.804688 555.546875 1421.652344 555.003906 1421.53125 554.441406 C 1421.417969 553.878906 1421.359375 553.316406 1421.359375 552.734375 C 1421.359375 552.171875 1421.417969 551.589844 1421.53125 551.027344 C 1421.652344 550.484375 1421.804688 549.921875 1422.039062 549.398438 C 1422.25 548.875 1422.523438 548.367188 1422.832031 547.882812 C 1423.140625 547.417969 1423.511719 546.972656 1423.921875 546.566406 C 1425.9375 544.546875 1428.964844 543.617188 1431.796875 544.179688 C 1432.359375 544.296875 1432.902344 544.449219 1433.425781 544.683594 C 1433.949219 544.898438 1434.453125 545.167969 1434.9375 545.480469 C 1435.402344 545.789062 1435.851562 546.15625 1436.257812 546.566406 C 1436.664062 546.972656 1437.03125 547.417969 1437.34375 547.882812 C 1437.65625 548.367188 1437.925781 548.875 1438.160156 549.398438 C 1438.371094 549.921875 1438.546875 550.484375 1438.644531 551.027344 C 1438.761719 551.589844 1438.820312 552.171875 1438.820312 552.734375 C 1438.820312 555.039062 1437.890625 557.289062 1436.261719 558.902344 C 1435.851562 559.308594 1435.40625 559.675781 1434.9375 559.988281 C 1434.453125 560.316406 1433.949219 560.589844 1433.429688 560.800781 C 1432.902344 561.015625 1432.359375 561.191406 1431.796875 561.285156 C 1431.234375 561.402344 1430.652344 561.460938 1430.089844 561.460938 Z M 1430.089844 561.460938 " fill-opacity="1" fill-rule="nonzero"/></g></svg>